<svg width="109" height="32" viewBox="0 0 109 32" fill="none" xmlns="http://www.w3.org/2000/svg">
<path d="M47.9289 11.5147C47.829 10.6279 47.4168 9.94102 46.6924 9.45393C45.968 8.96059 45.0563 8.71392 43.9572 8.71392C43.1704 8.71392 42.4897 8.83882 41.9152 9.08861C41.3407 9.33215 40.8942 9.66937 40.5757 10.1003C40.2634 10.5249 40.1073 11.0089 40.1073 11.5522C40.1073 12.008 40.2135 12.4015 40.4258 12.7324C40.6444 13.0634 40.9285 13.3413 41.2782 13.5661C41.6342 13.7847 42.0151 13.9689 42.421 14.1188C42.8269 14.2624 43.2172 14.3811 43.5919 14.4747L45.4653 14.9618C46.0773 15.1117 46.7049 15.3146 47.3481 15.5707C47.9913 15.8267 48.5877 16.1639 49.1373 16.5823C49.6868 17.0007 50.1302 17.5191 50.4674 18.1373C50.8109 18.7555 50.9826 19.4955 50.9826 20.3573C50.9826 21.4439 50.7016 22.4087 50.1395 23.2518C49.5838 24.0948 48.7751 24.7599 47.7134 25.247C46.6581 25.7341 45.381 25.9776 43.8823 25.9776C42.446 25.9776 41.2033 25.7497 40.1541 25.2938C39.105 24.8379 38.2838 24.1916 37.6906 23.3548C37.0973 22.5117 36.7695 21.5126 36.707 20.3573H39.6109C39.6671 21.0505 39.8919 21.6281 40.2853 22.0902C40.685 22.5461 41.1939 22.8864 41.8121 23.1112C42.4366 23.3298 43.1204 23.4391 43.8635 23.4391C44.6816 23.4391 45.4091 23.3111 46.0461 23.055C46.6893 22.7928 47.1951 22.4306 47.5636 21.9685C47.932 21.5001 48.1162 20.9537 48.1162 20.3292C48.1162 19.7609 47.9539 19.2957 47.6291 18.9335C47.3107 18.5713 46.8766 18.2715 46.3271 18.0342C45.7838 17.7969 45.1687 17.5877 44.4818 17.4066L42.2149 16.7884C40.6787 16.37 39.461 15.7549 38.5617 14.9431C37.6687 14.1313 37.2222 13.0572 37.2222 11.7208C37.2222 10.6155 37.522 9.65064 38.1215 8.82633C38.721 8.00202 39.5328 7.36193 40.5569 6.90606C41.5811 6.44395 42.7364 6.21289 44.0228 6.21289C45.3217 6.21289 46.4676 6.44082 47.4605 6.89669C48.4597 7.35256 49.2465 7.98016 49.8211 8.77949C50.3956 9.57258 50.6953 10.4843 50.7203 11.5147H47.9289Z" fill="#030303"/>
<path d="M57.3486 25.9776C56.4369 25.9776 55.6125 25.809 54.8757 25.4718C54.1388 25.1283 53.5549 24.6318 53.124 23.9824C52.6994 23.3329 52.487 22.5367 52.487 21.5938C52.487 20.7819 52.6432 20.1138 52.9554 19.5892C53.2676 19.0646 53.6892 18.6494 54.22 18.3434C54.7508 18.0374 55.344 17.8063 55.9997 17.6502C56.6554 17.4941 57.3236 17.3754 58.0043 17.2942C58.8661 17.1943 59.5655 17.1131 60.1025 17.0507C60.6396 16.982 61.0299 16.8727 61.2734 16.7228C61.517 16.573 61.6388 16.3294 61.6388 15.9922V15.9266C61.6388 15.1086 61.4077 14.4747 60.9456 14.0251C60.4897 13.5755 59.809 13.3507 58.9035 13.3507C57.9606 13.3507 57.2175 13.5599 56.6742 13.9783C56.1371 14.3904 55.7655 14.8494 55.5595 15.3552L52.9273 14.7557C53.2395 13.8815 53.6954 13.1758 54.2949 12.6388C54.9006 12.0955 55.5969 11.702 56.3838 11.4585C57.1706 11.2087 57.9981 11.0838 58.8661 11.0838C59.4406 11.0838 60.0495 11.1525 60.6927 11.2899C61.3421 11.421 61.9479 11.6646 62.5099 12.0205C63.0782 12.3765 63.5434 12.8854 63.9056 13.5474C64.2678 14.2031 64.4489 15.0555 64.4489 16.1046V25.6591H61.7137V23.692H61.6013C61.4202 24.0542 61.1485 24.4102 60.7863 24.7599C60.4241 25.1096 59.9589 25.4 59.3906 25.631C58.8224 25.8621 58.1417 25.9776 57.3486 25.9776ZM57.9575 23.7295C58.7318 23.7295 59.3938 23.5765 59.9433 23.2705C60.4991 22.9645 60.9206 22.5648 61.2079 22.0715C61.5014 21.5719 61.6481 21.038 61.6481 20.4697V18.615C61.5482 18.7149 61.3546 18.8086 61.0674 18.896C60.7863 18.9772 60.4647 19.049 60.1025 19.1115C59.7403 19.1677 59.3875 19.2208 59.0441 19.2707C58.7006 19.3144 58.4133 19.3519 58.1823 19.3831C57.639 19.4518 57.1425 19.5673 56.6929 19.7297C56.2495 19.8921 55.8936 20.1262 55.625 20.4322C55.3628 20.732 55.2316 21.1317 55.2316 21.6312C55.2316 22.3244 55.4877 22.849 55.9997 23.2049C56.5118 23.5546 57.1644 23.7295 57.9575 23.7295Z" fill="#030303"/>
<path d="M78.9175 11.2712L73.7 25.6591H70.7025L65.4756 11.2712H68.4825L72.1263 22.3431H72.2762L75.9107 11.2712H78.9175Z" fill="#030303"/>
<path d="M85.3912 25.9401C84.2297 25.9401 83.1931 25.6435 82.2813 25.0502C81.3759 24.4507 80.6639 23.5983 80.1456 22.493C79.6336 21.3814 79.3775 20.0482 79.3775 18.4932C79.3775 16.9383 79.6367 15.6082 80.155 14.5028C80.6796 13.3975 81.3977 12.5513 82.3094 11.9643C83.2212 11.3773 84.2547 11.0838 85.41 11.0838C86.303 11.0838 87.0211 11.2337 87.5644 11.5334C88.114 11.8269 88.5386 12.1704 88.8384 12.5638C89.1444 12.9572 89.3817 13.3038 89.5503 13.6036H89.7189V6.47517H92.5197V25.6591H89.7844V23.4204H89.5503C89.3817 23.7264 89.1381 24.0761 88.8196 24.4695C88.5074 24.8629 88.0765 25.2064 87.527 25.4999C86.9774 25.7934 86.2655 25.9401 85.3912 25.9401ZM86.0095 23.5515C86.8151 23.5515 87.4957 23.3392 88.0515 22.9145C88.6135 22.4836 89.0382 21.8873 89.3255 21.1254C89.619 20.3635 89.7657 19.4768 89.7657 18.4651C89.7657 17.466 89.6221 16.5917 89.3348 15.8423C89.0476 15.093 88.626 14.5091 88.0703 14.0907C87.5145 13.6723 86.8275 13.4631 86.0095 13.4631C85.1664 13.4631 84.4639 13.6816 83.9019 14.1188C83.3398 14.5559 82.9152 15.1523 82.6279 15.9079C82.3469 16.6635 82.2064 17.5159 82.2064 18.4651C82.2064 19.4268 82.35 20.2917 82.6373 21.0598C82.9246 21.8279 83.3492 22.4368 83.9112 22.8864C84.4795 23.3298 85.1789 23.5515 86.0095 23.5515Z" fill="#030303"/>
<path d="M101.523 25.9495C100.174 25.9495 98.9965 25.6404 97.9911 25.0221C96.9857 24.4039 96.2051 23.539 95.6493 22.4274C95.0935 21.3159 94.8156 20.017 94.8156 18.5307C94.8156 17.0382 95.0935 15.733 95.6493 14.6152C96.2051 13.4974 96.9857 12.6294 97.9911 12.0112C98.9965 11.3929 100.174 11.0838 101.523 11.0838C102.871 11.0838 104.049 11.3929 105.054 12.0112C106.059 12.6294 106.84 13.4974 107.396 14.6152C107.952 15.733 108.229 17.0382 108.229 18.5307C108.229 20.017 107.952 21.3159 107.396 22.4274C106.84 23.539 106.059 24.4039 105.054 25.0221C104.049 25.6404 102.871 25.9495 101.523 25.9495ZM101.532 23.5983C102.406 23.5983 103.131 23.3673 103.705 22.9052C104.28 22.4431 104.704 21.8279 104.979 21.0598C105.26 20.2917 105.401 19.4456 105.401 18.5213C105.401 17.6034 105.26 16.7603 104.979 15.9922C104.704 15.2179 104.28 14.5965 103.705 14.1281C103.131 13.6598 102.406 13.4256 101.532 13.4256C100.651 13.4256 99.9207 13.6598 99.34 14.1281C98.7655 14.5965 98.3377 15.2179 98.0567 15.9922C97.7819 16.7603 97.6445 17.6034 97.6445 18.5213C97.6445 19.4456 97.7819 20.2917 98.0567 21.0598C98.3377 21.8279 98.7655 22.4431 99.34 22.9052C99.9207 23.3673 100.651 23.5983 101.532 23.5983Z" fill="#030303"/>
<path d="M15.9063 0H11.7546C5.45337 0 0.152739 4.90816 0.00330391 11.1406C-0.150463 17.5605 5.08303 22.8308 11.538 22.8308H15.1136C16.3676 22.8308 17.3844 21.8248 17.3844 20.5841C17.3844 19.3434 16.3676 18.3373 15.1136 18.3373H11.7102C7.92122 18.3373 4.69103 15.4284 4.54701 11.6827C4.39649 7.7442 7.59095 4.49352 11.538 4.49352H16.1142C19.9714 4.49352 23.1106 7.59849 23.1106 11.4159C23.1106 11.4492 23.1084 11.4824 23.1084 11.5167C24.6493 12.6824 25.8871 14.222 26.6786 15.9984C27.3543 14.4791 27.7074 12.7895 27.6456 11.012C27.4258 4.83316 22.1544 0 15.9063 0Z" fill="#39ACA6"/>
<path d="M11.7443 32.0007H15.8961C22.1962 32.0007 27.4979 27.0926 27.6473 20.8601C27.8011 14.4402 22.5676 9.16992 16.1126 9.16992H12.537C11.283 9.16992 10.2662 10.176 10.2662 11.4167C10.2662 12.6574 11.283 13.6634 12.537 13.6634H15.9405C19.7294 13.6634 22.9596 16.5723 23.1036 20.318C23.2541 24.2565 20.0597 27.5072 16.1126 27.5072H11.5364C7.67926 27.5072 4.54003 24.4023 4.54003 20.5848C4.54003 20.5516 4.5422 20.5184 4.5422 20.4841C3.00128 19.3184 1.76356 17.7788 0.97199 16.0023C0.297364 17.5216 -0.0556504 19.2112 0.00715588 20.9887C0.224812 27.1676 5.49621 32.0007 11.7454 32.0007H11.7443Z" fill="#39ACA6"/>
</svg>
