<svg width="25" height="28" viewBox="0 0 25 28" fill="none" xmlns="http://www.w3.org/2000/svg">
<path d="M13.918 0H10.2852C4.7717 0 0.133647 4.29464 0.00289092 9.74802C-0.131655 15.3655 4.44765 19.977 10.0957 19.977H13.2244C14.3216 19.977 15.2113 19.0967 15.2113 18.011C15.2113 16.9254 14.3216 16.0451 13.2244 16.0451H10.2464C6.93107 16.0451 4.10465 13.4998 3.97863 10.2224C3.84693 6.77617 6.64208 3.93183 10.0957 3.93183H14.0999C17.4749 3.93183 20.2218 6.64868 20.2218 9.98895C20.2218 10.018 20.2199 10.0471 20.2199 10.0771C21.5682 11.0971 22.6512 12.4442 23.3438 13.9986C23.935 12.6692 24.2439 11.1908 24.1899 9.63552C23.9976 4.22902 19.3851 0 13.918 0Z" fill="#39ACA6"/>
<path d="M10.2763 28.0004H13.909C19.4216 28.0004 24.0606 23.7058 24.1914 18.2524C24.3259 12.6349 19.7466 8.02344 14.0985 8.02344H10.9699C9.87266 8.02344 8.98295 8.90374 8.98295 9.98935C8.98295 11.075 9.87266 11.9553 10.9699 11.9553H13.9479C17.2632 11.9553 20.0896 14.5006 20.2157 17.778C20.3474 21.2242 17.5522 24.0686 14.0985 24.0686H10.0944C6.71936 24.0686 3.97253 21.3517 3.97253 18.0114C3.97253 17.9824 3.97442 17.9533 3.97442 17.9233C2.62612 16.9033 1.54312 15.5562 0.850491 14.0018C0.260193 15.3312 -0.0486941 16.8096 0.00626139 18.3649C0.19671 23.7714 4.80918 28.0004 10.2772 28.0004H10.2763Z" fill="#39ACA6"/>
</svg>
