<svg width="169" height="38" viewBox="0 0 169 38" fill="none" xmlns="http://www.w3.org/2000/svg">
<path d="M100.314 22.0861H98.3191V18.1783H100.314C101.762 18.1783 102.692 18.7495 102.692 20.1458C102.692 21.5421 101.762 22.0861 100.314 22.0861ZM100.368 12.7631H92.0086V32.7238H98.3191V27.5058H100.368C105.23 27.5058 108.946 25.7378 108.946 20.1481C108.946 14.5584 105.23 12.7631 100.368 12.7631ZM117.423 25.3094L118.76 21.0616C118.951 20.3204 119.143 19.5225 119.279 18.4956C119.415 19.5225 119.608 20.3204 119.826 21.0616L121.163 25.3094H117.421H117.423ZM115.895 12.7631L108.739 32.7238H115.131L115.977 30.0718H122.587L123.405 32.7238H129.797L122.668 12.7631H115.895ZM143.774 19.8625H138.583V12.7631H132.272V32.7238H138.583V25.6245H143.774V32.7238H150.055V12.7631H143.774V19.8625ZM154.518 12.7631V32.7238H160.828V18.5228H168.859V12.7631H154.518ZM80.3282 27.8753H77.6512V24.6249H80.3282C81.5296 24.6249 82.1597 25.1938 82.1597 26.2501C82.1597 27.3064 81.5318 27.8753 80.3282 27.8753ZM77.6535 17.6094H80.029C81.0944 17.6094 81.6134 18.2644 81.6134 19.0918C81.6134 19.9191 81.0944 20.5742 80.029 20.5742L77.6535 20.547V17.6094ZM84.9455 22.1156C86.913 21.3177 87.6769 19.8625 87.6769 17.8111C87.6769 14.3317 85.2198 12.7631 80.9017 12.7631H71.3407V32.7238H80.6546C84.669 32.7238 88.4385 31.5542 88.4385 27.0208C88.4385 24.4548 87.1828 22.8296 84.9433 22.1156H84.9455ZM56.6796 25.3094L58.0169 21.0616C58.2073 20.3204 58.4 19.5225 58.536 18.4956C58.672 19.5225 58.8647 20.3204 59.0823 21.0616L60.4219 25.3094H56.6796ZM55.1495 12.7631L47.9935 32.7238H54.3856L55.2334 30.0718H61.8431L62.6614 32.7238H69.0536L61.9247 12.7631H55.1495Z" fill="#FEFEFE"/>
<path d="M25.7819 19.8693V27.0752L36.0434 36.2576V14.5289L25.7819 19.8693ZM11.1208 19.8693L0.859375 14.5289V36.2395L11.1208 26.8054V19.8693ZM12.4491 28.5304L2.46194 37.7129H34.4159L24.1544 28.5304H12.4491ZM17.3928 13.7015V0.287109L1.8046 12.55L12.066 17.8904L17.3928 13.7015ZM35.0981 12.55L19.5099 0.287109V13.7015L24.8367 17.8904L35.0981 12.55Z" fill="#FEFEFE"/>
</svg>
