<svg width="151" height="66" viewBox="0 0 151 66" fill="none" xmlns="http://www.w3.org/2000/svg">
<path d="M7.06039 16.4133C7.15133 14.2717 7.88528 12.4631 9.48256 11.0592C11.0632 9.66943 12.9461 9.21856 14.9353 9.35689C15.1633 8.30528 15.2927 7.28953 15.6065 6.33399C16.767 2.80257 19.8104 0.447006 23.5032 0.407298C30.3316 0.335568 37.1627 0.377838 43.9911 0.398332C44.6636 0.400894 45.3527 0.513612 46.0059 0.683971C49.5668 1.61134 52.3592 5.13892 52.3656 8.82917C52.3912 23.2149 52.3835 37.5993 52.3873 51.985C52.3873 53.5861 52.4053 55.1872 52.3784 56.7871C52.3015 61.3944 49.2159 64.9028 44.6674 65.5599C44.2063 65.6265 43.7298 65.6009 43.261 65.6009C36.9436 65.6035 30.6237 65.5125 24.3089 65.6304C19.079 65.729 15.2466 61.7851 15.0903 56.9369C15.0903 56.8972 15.0673 56.8588 15.0365 56.7602C10.2767 56.8268 7.59965 54.4571 6.9925 49.5897C6.17145 49.5897 5.32478 49.6243 4.48195 49.5833C2.28522 49.477 0.271659 47.4801 0.117952 45.2898C0.108986 45.1617 0.0974576 45.0336 0.0987385 44.9068C0.103862 36.8615 0.0782443 28.8149 0.139727 20.7696C0.15766 18.464 2.38513 16.4876 4.78424 16.4159C5.52844 16.3928 6.27264 16.4121 7.06167 16.4121L7.06039 16.4133ZM17.2858 9.35305H18.0146C22.0263 9.35305 26.0381 9.35049 30.0511 9.35689C30.5404 9.35689 31.04 9.34921 31.5165 9.44015C34.9915 10.1024 37.2638 12.8512 37.269 16.4658C37.2856 27.4982 37.2818 38.5318 37.26 49.5641C37.2587 50.3403 37.1447 51.1473 36.9116 51.8851C35.9599 54.8978 33.3827 56.7153 30.1331 56.723C26.0996 56.7333 22.066 56.7256 18.0325 56.7256C17.7866 56.7256 17.5407 56.7256 17.3011 56.7256C17.1308 60.1199 20.1255 63.3811 23.475 63.4042C30.3675 63.4516 37.2613 63.4567 44.1538 63.399C46.485 63.3798 48.2104 62.1374 49.408 60.1635C50.1855 58.8826 50.4058 57.4647 50.4058 55.9955C50.4058 43.8949 50.4058 31.7956 50.4058 19.695C50.4058 16.3237 50.425 12.9511 50.4007 9.57977C50.3699 5.43608 47.5315 2.49515 43.53 2.48234C37.0422 2.46185 30.5545 2.46825 24.0681 2.48234C21.6869 2.48747 19.7694 3.43917 18.4386 5.44505C17.6726 6.60041 17.2422 7.87106 17.2858 9.35433V9.35305ZM17.2883 54.5224C17.4164 54.5455 17.4766 54.566 17.5381 54.566C21.8265 54.5686 26.1162 54.5916 30.4047 54.5455C31.1245 54.5378 31.9148 54.3611 32.5463 54.0255C34.4087 53.0379 35.2336 51.4022 35.2298 49.2977C35.2157 41.36 35.2259 33.4223 35.2234 25.4833C35.2234 22.3464 35.2362 19.2095 35.1888 16.0739C35.1798 15.4783 35.0095 14.8391 34.7469 14.3024C33.776 12.317 32.0993 11.4588 29.9282 11.4614C25.9382 11.4665 21.9469 11.4627 17.9569 11.4627C17.7482 11.4627 17.5407 11.4627 17.296 11.4627V16.4082C18.1849 16.4082 19.0406 16.3467 19.8821 16.4274C20.6122 16.4979 21.3859 16.6029 22.0353 16.9129C23.9887 17.8454 24.8161 19.5323 24.8264 21.6343C24.8456 25.7523 24.8315 29.8704 24.8315 33.9897C24.8315 37.3828 24.7828 40.7759 24.8456 44.1677C24.9007 47.1765 22.8909 49.8433 19.3518 49.6333C18.6768 49.5936 17.9967 49.6282 17.2883 49.6282V54.5224ZM9.17899 18.5934V47.5979H15.0429V18.5934H9.17899ZM17.3139 18.6062V47.6415C18.0325 47.6415 18.6935 47.6095 19.3493 47.6479C21.5037 47.7721 22.841 46.4362 22.8205 44.2318C22.7539 36.8103 22.7949 29.3888 22.7949 21.966C22.7949 21.6893 22.8 21.4101 22.7782 21.1347C22.6834 19.9115 21.7112 18.7497 20.5085 18.6293C19.4594 18.523 18.3912 18.6075 17.3127 18.6075L17.3139 18.6062ZM7.00531 47.6223V18.5524C6.37127 18.5524 5.79615 18.5473 5.22103 18.5524C3.19466 18.5716 2.05979 19.7014 2.05722 21.738C2.04954 27.6058 2.05466 33.4748 2.05466 39.3426C2.05466 41.0705 2.03801 42.7997 2.05979 44.5276C2.08284 46.3042 3.07553 47.4558 4.74582 47.6108C5.48105 47.6786 6.22909 47.6223 7.00659 47.6223H7.00531ZM9.23919 49.6717C8.90103 52.5281 12.0751 55.1424 15.0596 54.4789V49.6717H9.23919ZM15.0583 11.5408C11.8945 11.0169 8.92921 13.4955 9.24431 16.4095C11.003 16.4095 12.768 16.4095 14.5331 16.4095C14.6984 16.4095 14.8636 16.3928 15.0596 16.3826V11.5421L15.0583 11.5408Z" fill="white"/>
<path d="M130.819 16.5158V33.2007C129.83 33.2007 128.875 33.2302 127.923 33.1789C127.704 33.1674 127.462 32.9125 127.295 32.714C124.997 29.9921 122.712 27.2599 120.422 24.5303C120.318 24.4061 120.205 24.2895 120.007 24.0705V33.1584H116.03V16.4812C116.976 16.4812 117.911 16.4492 118.841 16.5056C119.057 16.5184 119.286 16.8027 119.455 17.0064C121.769 19.7974 124.074 22.5975 126.382 25.3937C126.474 25.5064 126.579 25.6089 126.785 25.8305V16.5171H130.818L130.819 16.5158Z" fill="white"/>
<path d="M93.7 27.5725C95.0436 29.4105 96.3834 31.2422 97.8168 33.2033C96.9137 33.2033 96.1388 33.2084 95.3651 33.202C94.5774 33.1956 93.6667 33.4172 93.0377 33.0957C92.4088 32.7729 92.0553 31.9044 91.5903 31.2691C90.9729 30.4263 90.3735 29.5707 89.7433 28.7381C89.619 28.5741 89.3936 28.3986 89.2053 28.3871C88.5277 28.3448 87.8463 28.3705 87.0906 28.3705V33.1572H83.0557V16.6554C83.1096 16.617 83.1429 16.5722 83.1762 16.5734C85.9903 16.6055 88.8146 16.5056 91.616 16.7143C94.2443 16.9103 96.1516 18.7074 96.6575 21.0143C97.2275 23.6184 96.2349 25.9086 93.8857 27.4124C93.8357 27.4444 93.7935 27.4905 93.7013 27.5712L93.7 27.5725ZM86.9868 24.5841C88.1832 24.5841 89.3347 24.6674 90.4683 24.5624C91.785 24.4407 92.6253 23.5722 92.697 22.4912C92.7611 21.5433 92.1667 20.5826 91.0985 20.3918C89.7612 20.1535 88.3804 20.1638 86.9855 20.0639V24.5841H86.9868Z" fill="white"/>
<path d="M104.132 23.1675H111.143V26.672H104.137V29.5783H112.22V33.1597H100.094V16.5196H112.222V20.0921H104.132V23.1675Z" fill="white"/>
<path d="M132.699 33.1495C133.149 32.0389 133.545 31.0603 133.943 30.0805C135.73 25.6883 137.526 21.2999 139.295 16.9014C139.473 16.4582 139.678 16.2724 140.168 16.2942C141.062 16.3352 141.961 16.2814 142.855 16.3237C143.068 16.3339 143.385 16.5171 143.46 16.7003C145.671 22.0672 147.856 27.4457 150.044 32.8216C150.073 32.8946 150.071 32.9804 150.098 33.1469C148.763 33.1469 147.472 33.1597 146.181 33.129C146.04 33.1251 145.849 32.8959 145.776 32.7293C145.495 32.0876 145.23 31.4356 145.005 30.7721C144.882 30.4109 144.705 30.279 144.317 30.2828C142.397 30.3021 140.477 30.3021 138.557 30.2828C138.167 30.279 137.992 30.4071 137.877 30.7747C137.667 31.4433 137.414 32.0991 137.145 32.7473C137.077 32.9099 136.883 33.1303 136.742 33.1328C135.444 33.1623 134.147 33.1508 132.701 33.1508L132.699 33.1495ZM139.364 26.7258H143.461C142.782 24.9018 142.129 23.1444 141.423 21.2474C140.707 23.1534 140.04 24.9287 139.364 26.7258Z" fill="white"/>
<path d="M63.6259 33.1482C64.2484 31.6175 64.8325 30.1881 65.4127 28.756C67.0087 24.8147 68.6086 20.876 70.1892 16.9282C70.3685 16.4812 70.567 16.2545 71.1037 16.2891C71.9952 16.348 72.8957 16.2852 73.7898 16.3211C73.9896 16.3288 74.2932 16.4876 74.3623 16.6541C76.5962 22.08 78.807 27.5148 81.0191 32.9497C81.0319 32.983 81.0127 33.0291 80.9986 33.1495C79.7152 33.1495 78.424 33.1623 77.1329 33.1315C76.9894 33.1277 76.7909 32.91 76.7205 32.7473C76.4335 32.0851 76.1722 31.41 75.9289 30.7299C75.8097 30.3981 75.624 30.2816 75.2692 30.2854C73.3492 30.3021 71.4291 30.3046 69.5103 30.2828C69.1158 30.279 68.9442 30.4212 68.8263 30.7785C68.6073 31.4446 68.3588 32.1017 68.086 32.7473C68.0168 32.91 67.817 33.129 67.6735 33.1328C66.3593 33.1623 65.0451 33.1508 63.6272 33.1508L63.6259 33.1482ZM72.3257 21.2461C71.5994 23.1841 70.9372 24.9479 70.2584 26.7604H74.402C73.7193 24.9466 73.052 23.1764 72.3257 21.2461Z" fill="white"/>
<path d="M78.7596 49.7178H75.6791C75.6791 48.1001 75.6842 46.5489 75.6752 44.9965C75.674 44.6801 75.6599 44.3534 75.5843 44.0486C75.323 42.9765 74.3598 42.5192 73.3658 42.9906C72.929 43.1981 72.6741 43.4619 72.6972 44.064C72.7663 45.9149 72.7228 47.7709 72.7228 49.6717H69.6589C69.6589 48.1103 69.6666 46.5591 69.6538 45.0093C69.6512 44.6506 69.6102 44.2856 69.527 43.9372C69.3733 43.2852 68.916 42.9124 68.2691 42.8317C67.6569 42.7549 67.1202 42.9842 66.7628 43.4888C66.6309 43.6746 66.6091 43.9653 66.6078 44.2087C66.5963 46.0186 66.6014 47.8285 66.6014 49.6794H63.5977V40.3071C65.0105 40.0356 66.4912 40.1867 66.6616 40.6325C68.4651 39.5078 70.152 39.6334 71.7096 41.1397C72.1374 40.8694 72.5396 40.5479 72.9931 40.3417C75.5139 39.194 78.5637 40.2559 78.7417 43.7348C78.8416 45.692 78.7596 47.6581 78.7596 49.7191V49.7178Z" fill="white"/>
<path d="M90.4657 40.1111V49.5475C89.1566 49.8357 87.8168 49.6781 87.4005 49.1517C86.0761 49.8152 84.6812 50.0355 83.2517 49.4488C82.3577 49.0825 81.6634 48.4613 81.1536 47.6428C79.9906 45.774 80.1801 43.2237 81.5994 41.5521C82.9981 39.9036 84.9387 39.5808 87.3685 40.4121C87.7336 40.3122 88.0935 40.1508 88.4637 40.1239C89.1157 40.0765 89.774 40.1111 90.467 40.1111H90.4657ZM83.3657 44.8094C83.3619 45.961 83.8986 46.8397 84.7888 47.1407C86.1965 47.6159 87.4133 46.6859 87.5478 45.031C87.6542 43.7156 86.7934 42.5858 85.6457 42.5359C84.3584 42.4795 83.3696 43.4645 83.3657 44.8094Z" fill="white"/>
<path d="M117.56 40.4224C117.885 40.3199 118.203 40.1508 118.534 40.1278C119.209 40.0817 119.889 40.1137 120.608 40.1137V49.6474C119.592 49.4834 118.513 50.0111 117.51 49.226C114.763 50.2135 112.862 49.7831 111.461 47.8144C110.162 45.9891 110.27 43.4069 111.753 41.5867C112.787 40.3186 114.803 39.2619 117.544 40.5991C117.549 40.5402 117.554 40.4813 117.559 40.4211L117.56 40.4224ZM117.758 44.99C117.818 43.6823 116.987 42.6678 115.794 42.5922C114.648 42.5205 113.611 43.5209 113.561 44.7492C113.506 46.1172 114.406 47.2021 115.648 47.2649C116.78 47.3226 117.696 46.3363 117.758 44.99Z" fill="white"/>
<path d="M110.516 49.6346C109.262 49.6346 108.163 49.6499 107.064 49.6166C106.909 49.6115 106.728 49.3886 106.615 49.226C105.97 48.2999 105.341 47.3623 104.658 46.3555C104.247 46.8499 103.726 47.2636 103.508 47.8003C103.287 48.3421 103.369 49.0069 103.316 49.6679H100.384V40.2661H103.362V43.7476C104.092 42.9496 104.766 42.354 105.266 41.6367C106.064 40.4928 107.053 39.9792 108.449 40.2059C108.966 40.2892 109.507 40.22 110.203 40.22C109.008 41.5432 107.905 42.7639 106.748 44.0447C107.977 45.8675 109.204 47.6889 110.517 49.6358L110.516 49.6346Z" fill="white"/>
<path d="M122.414 40.1419H130.814C130.905 41.0398 130.947 41.8314 130.255 42.582C129.159 43.7719 128.184 45.072 127.159 46.3273C127.029 46.4861 126.91 46.6552 126.696 46.9396H130.763V49.5411H122.338C122.245 48.7405 122.196 48.0181 122.825 47.311C124.094 45.8828 125.266 44.3663 126.568 42.7779H122.416V40.1419H122.414Z" fill="white"/>
<path d="M92.6022 40.1432H95.538C95.5598 40.4237 95.5803 40.6747 95.6111 41.0731C96.5551 40.3174 97.5478 39.928 98.7736 40.1765C98.7736 41.0001 98.8018 41.8262 98.7467 42.6473C98.7364 42.792 98.3919 42.9573 98.1728 43.0392C97.5042 43.2877 96.8049 43.4607 96.149 43.7399C95.7123 43.9256 95.5419 44.3073 95.5598 44.8312C95.6034 46.1736 95.5739 47.5185 95.5739 48.8622C95.5739 49.0915 95.5739 49.322 95.5739 49.5974H92.6022V40.1432Z" fill="white"/>
</svg>
