<svg width="166" height="44" viewBox="0 0 166 44" fill="none" xmlns="http://www.w3.org/2000/svg">
<path d="M134.134 24.5174C128.813 24.5606 124.313 20.2307 124.29 14.6998C124.266 8.9737 128.802 4.92025 133.795 4.74295C139.624 4.53611 144.081 9.35572 144.032 14.7009C143.983 20.0112 139.611 24.6007 134.133 24.5174H134.134ZM137.538 19.2735C134.361 20.1304 131.639 19.2735 129.198 16.955C129.411 18.3016 131.072 20.3067 132.5 20.7088C134.474 21.266 136.07 20.561 137.538 19.2735ZM132.849 10.5978C132.857 9.66809 132.213 8.98636 131.31 8.96948C130.378 8.95259 129.684 9.63327 129.684 10.5662C129.684 11.4326 130.371 12.1386 131.229 12.1533C132.136 12.1692 132.841 11.4927 132.849 10.5968V10.5978ZM139.176 11.4094C138.269 11.4083 137.576 12.0932 137.576 12.9902C137.576 13.8598 138.307 14.5816 139.187 14.5816C140.061 14.5816 140.779 13.8651 140.792 12.9818C140.803 12.1175 140.077 11.4104 139.176 11.4094Z" fill="white"/>
<path d="M117.614 20.676C116.168 20.4407 114.712 20.2497 113.278 19.951C112.582 19.8065 111.903 19.492 111.673 18.6804C111.539 18.2066 111.639 17.7264 112.039 17.5122C113.286 16.8432 113.586 15.6813 113.769 14.4402C113.838 13.9717 113.865 13.4957 113.885 13.0229C113.905 12.5322 113.672 12.2051 113.167 12.1628C112.139 12.0763 111.109 12.0035 110.079 11.9507C109.604 11.9265 109.229 12.1618 109.179 12.6515C109.074 13.6614 108.966 14.6798 108.995 15.6897C109.005 16.0654 109.322 16.5181 109.629 16.7841C110.683 17.6927 110.197 19.0139 108.953 19.2756C107.584 19.5637 106.199 19.5732 104.826 19.3822C103.861 19.2482 102.913 18.9844 101.968 18.7427C101.671 18.6667 101.375 18.5095 101.13 18.3216C100.413 17.775 100.412 16.6226 101.209 16.3672C102.55 15.9366 102.816 14.9056 102.933 13.769C103.216 11.0622 103.448 8.35106 103.698 5.64102C103.776 4.80416 103.527 4.1752 102.746 3.71297C101.877 3.19798 101.913 2.22076 102.84 1.78281C103.516 1.46305 104.298 1.28786 105.048 1.22349C106.959 1.05992 108.864 1.1359 110.696 1.82185C111.504 2.12473 111.823 2.53208 111.81 3.22225C111.799 3.7594 111.534 4.15092 111.066 4.33244C110.155 4.68702 109.808 5.37614 109.742 6.29004C109.711 6.709 109.635 7.12479 109.59 7.54375C109.514 8.25292 109.782 8.64022 110.521 8.73625C111.475 8.85867 112.438 8.93148 113.398 8.98108C114.101 9.01696 114.294 8.865 114.355 8.17272C114.426 7.38756 114.47 6.58869 114.397 5.80776C114.365 5.45845 114.071 5.0891 113.807 4.81577C113.443 4.43902 112.951 4.1657 113.089 3.52512C113.234 2.84867 113.68 2.48564 114.332 2.32418C115.896 1.93583 117.471 2.06352 119.029 2.30096C119.917 2.43604 120.794 2.71042 121.641 3.02174C122.227 3.23702 122.591 3.7098 122.547 4.41581C122.506 5.0701 122.081 5.37931 121.552 5.56715C121.05 5.7455 120.76 6.05998 120.684 6.58025C120.53 7.63873 120.345 8.69404 120.234 9.75779C120.014 11.8526 119.861 13.9548 119.629 16.0474C119.532 16.917 119.695 17.5713 120.478 18.0715C121.217 18.5454 121.236 19.377 120.528 19.8993C120.149 20.179 119.662 20.3288 119.204 20.4755C118.928 20.5631 118.614 20.5367 118.316 20.5505C118.089 20.561 117.86 20.5526 117.633 20.5526C117.626 20.5937 117.619 20.6359 117.611 20.6771L117.614 20.676Z" fill="white"/>
<path d="M13.1237 9.70186C16.4973 9.82744 18.3729 13.0409 16.7529 15.9957C16.3342 16.7608 16.4699 17.0236 17.3357 17.1228C20.0003 17.4278 21.6686 19.5827 21.3625 22.2421C21.0974 24.5501 19.7415 26.0307 17.7459 26.8992C16.249 27.5503 14.6322 27.9186 13.0774 28.44C11.125 29.0943 9.18732 29.7918 7.23176 30.4345C6.81203 30.5728 6.33761 30.6297 5.89789 30.5949C5.06791 30.5284 4.53037 29.5491 5.00585 28.937C5.7643 27.9587 5.79796 26.9372 5.46765 25.8112C4.64398 23.0104 3.85292 20.2012 3.03661 17.3982C2.78625 16.5403 2.20031 16.058 1.31037 15.9261C0.760202 15.8448 0.303658 15.6032 0.199516 14.9826C0.0974772 14.3737 0.354151 13.8049 0.965331 13.502C1.52391 13.2255 2.12037 13.0029 2.72313 12.8446C5.29198 12.166 7.80822 11.3376 10.2877 10.3783C11.186 10.0311 12.1748 9.92031 13.1226 9.70081L13.1237 9.70186ZM14.7311 23.786C14.7731 23.7702 14.8152 23.7544 14.8573 23.7396C14.6122 23.0748 14.4292 22.3793 14.1073 21.7546C13.6739 20.9145 12.9785 20.4544 11.9623 20.5906C11.0272 20.7151 10.6916 21.1647 10.9525 22.0553C11.0114 22.2558 11.0682 22.4585 11.1471 22.6516C11.5069 23.5201 11.8487 24.3981 12.2579 25.2424C12.3547 25.4418 12.6861 25.6307 12.9186 25.6423C13.9705 25.693 14.7826 24.8297 14.73 23.7871L14.7311 23.786ZM11.7783 16.5297C11.7215 15.8068 11.4921 14.9373 10.9157 14.2313C10.6474 13.902 10.2309 13.6107 9.8269 13.4957C9.24833 13.3311 8.36996 13.7184 8.53827 14.2977C8.90856 15.5694 9.34406 16.822 9.77326 18.0758C9.88266 18.3955 10.1688 18.4377 10.4728 18.3691C11.3259 18.1781 11.7835 17.6009 11.7793 16.5297H11.7783Z" fill="white"/>
<path d="M54.5629 1.85562C55.7022 1.8609 56.7194 2.01286 57.6924 2.4867C59.9457 3.58528 60.2318 6.938 58.695 8.66766C58.6255 8.74575 58.5456 8.81645 58.4825 8.89982C58.0775 9.43381 58.1543 9.73246 58.7844 9.95619C59.6217 10.2538 60.377 10.6749 60.9945 11.3249C62.22 12.6166 62.3094 14.1616 61.8445 15.7498C61.1439 18.1412 59.3251 19.2946 57.0224 19.7368C55.7737 19.9764 54.4872 20.0144 53.2206 20.1621C50.9831 20.4228 48.7488 20.7193 46.5082 20.9504C45.9738 21.0053 45.3794 20.9673 44.8819 20.7837C44.014 20.4629 43.892 19.4857 44.5978 18.8862C45.2437 18.3364 45.5877 17.6716 45.5372 16.8189C45.4142 14.7156 45.2953 12.6124 45.1575 10.5113C45.0902 9.47919 45.0071 8.44604 44.8882 7.41922C44.7925 6.59503 44.4485 5.93757 43.6027 5.59881C42.7496 5.25795 42.5034 4.85482 42.5939 4.21002C42.6728 3.64965 43.305 3.07556 44.0119 2.98164C44.7399 2.88561 45.472 2.80224 46.2052 2.77374C48.5163 2.68193 50.8022 2.40016 53.0755 1.97698C53.5888 1.882 54.1211 1.88939 54.564 1.85668L54.5629 1.85562ZM55.151 15.4259C55.0521 14.9309 54.9869 14.4265 54.848 13.9432C54.4914 12.7116 53.7245 12.2188 52.4548 12.357C51.9078 12.4161 51.6785 12.6536 51.6774 13.2097C51.6774 13.5242 51.6964 13.8418 51.7458 14.1521C51.8783 14.9942 51.9888 15.8427 52.1897 16.669C52.3601 17.3666 52.6568 17.5207 53.3332 17.4552C54.5292 17.3402 55.0994 16.6901 55.152 15.4269L55.151 15.4259ZM53.6277 7.65772C53.6719 7.64295 53.7171 7.62818 53.7613 7.61446C53.5446 6.94222 53.3626 6.25627 53.0997 5.60303C52.8651 5.01839 52.317 4.82738 51.7374 4.79572C51.2293 4.76723 50.8664 5.06271 50.9021 5.52388C50.9989 6.77443 51.1462 8.02181 51.2882 9.26918C51.345 9.77362 51.688 9.87704 52.1277 9.80423C53.2185 9.62166 53.6467 9.01063 53.6267 7.65878L53.6277 7.65772Z" fill="white"/>
<path d="M92.436 18.9284C90.0187 18.8641 88.1715 18.5327 86.3716 17.9111C85.4427 17.5903 84.7758 16.9877 84.5096 16.0569C84.2319 15.085 84.072 14.0782 83.8774 13.0831C83.8448 12.9174 83.8858 12.7327 83.9142 12.5607C83.9942 12.0753 84.1415 11.6236 84.6906 11.4874C85.245 11.3503 85.6436 11.6236 85.9498 12.0478C86.3705 12.6314 86.7577 13.2382 87.1784 13.8207C88.2682 15.3267 90.3995 16.0263 92.0847 15.4618C92.5875 15.2929 93.0041 15.0301 93.0346 14.4719C93.0651 13.9157 92.7548 13.4946 92.2404 13.2804C91.2074 12.8509 90.1659 12.4457 89.1256 12.0352C87.5992 11.4326 86.3495 10.4606 85.448 9.09506C83.9374 6.8082 84.3445 4.02851 86.4747 2.23026C88.7606 0.302204 91.3967 -0.0418273 94.2243 0.702167C94.6809 0.822473 95.1259 0.983935 95.5835 1.0958C95.7981 1.14856 96.0684 1.20977 96.2483 1.1264C97.3044 0.637793 98.0324 1.13907 98.6699 1.89678C99.4346 2.8054 99.9585 3.81956 99.8912 5.05533C99.8544 5.73495 99.584 6.29321 98.9402 6.5697C98.3175 6.83775 97.7452 6.67206 97.2382 6.23622C96.4418 5.55027 95.6687 4.83477 94.8355 4.19736C94.1875 3.70242 93.4091 3.55256 92.5949 3.70347C91.9416 3.82483 91.565 4.17625 91.4788 4.72079C91.3799 5.34132 91.6124 5.87319 92.2404 6.12647C93.4543 6.61613 94.7209 6.97916 95.9159 7.50787C96.7701 7.88567 97.6253 8.35001 98.3353 8.94942C100.048 10.3931 100.483 12.5871 99.6261 14.6882C98.7877 16.7429 97.1729 17.8932 95.129 18.462C94.095 18.7501 93.003 18.8335 92.435 18.9274L92.436 18.9284Z" fill="white"/>
<path d="M24.2922 25.0218C24.0124 25.0218 23.7283 25.0492 23.4527 25.0165C22.8984 24.9501 22.5596 24.605 22.4187 24.0456C22.2924 23.5454 22.527 23.2172 22.932 23.0114C24.1439 22.3941 24.5089 21.2385 24.7919 20.0545C25.3936 17.5365 25.9753 15.0143 26.5297 12.4858C26.799 11.2584 26.7842 10.01 26.576 8.77108C26.1909 6.47683 27.6205 5.50805 29.3205 5.29805C30.4019 5.16402 31.3044 5.57665 32.1271 6.22989C33.8617 7.60918 35.1661 9.37366 36.4895 11.1223C37.9811 13.0936 39.4728 15.065 40.9623 17.0373C41.0886 17.2041 41.2032 17.3803 41.3137 17.5587C41.746 18.2594 42.3341 18.6625 43.1882 18.7206C43.9488 18.7712 44.3233 19.6239 43.9257 20.2898C43.5627 20.8966 42.9747 21.229 42.3435 21.4422C40.0661 22.2105 37.716 22.6389 35.3208 22.8014C35.0146 22.8225 34.6927 22.7476 34.3919 22.6664C33.9017 22.5334 33.6461 22.1577 33.5577 21.6786C33.4778 21.2438 33.6987 20.9399 34.0574 20.7183C34.1615 20.6539 34.2793 20.5927 34.3498 20.4987C34.5055 20.2919 34.7927 20.0154 34.7432 19.8561C34.6454 19.5437 34.4045 19.1363 34.1331 19.0498C33.7081 18.9137 33.1969 18.9432 32.7435 19.0234C31.4233 19.2577 30.1115 19.5374 28.8029 19.8328C28.3937 19.9257 28.0855 20.1779 28.0666 20.6708C28.0392 21.3736 28.1854 21.5425 28.8818 21.6733C29.332 21.7577 29.8317 21.7841 29.979 22.392C30.1263 23.003 29.878 23.4431 29.4057 23.7375C28.9355 24.0298 28.4305 24.319 27.9014 24.4488C26.719 24.7369 25.5114 24.9258 24.3143 25.1548C24.308 25.1115 24.3006 25.0693 24.2943 25.026L24.2922 25.0218ZM32.5689 15.6105C31.9735 14.4666 31.2129 13.6023 30.3787 12.8087C29.8696 12.3243 29.4004 12.4805 29.2353 13.1833C29.0238 14.0825 28.8797 14.9995 28.7209 15.9103C28.6641 16.2342 28.8155 16.439 29.1606 16.3799C30.0516 16.2269 30.9405 16.0591 31.8262 15.8797C32.0555 15.8332 32.2712 15.7214 32.5689 15.6116V15.6105Z" fill="white"/>
<path d="M159.972 22.4785C157.808 22.506 156.462 22.0195 155.129 21.4781C154.307 21.1446 154.243 21.171 153.992 22.0026C153.824 22.5556 153.689 23.118 153.526 23.6721C153.304 24.4298 153.537 25.0493 154.08 25.5769C154.42 25.9083 154.7 26.2502 154.515 26.7747C154.319 27.3382 153.878 27.5524 153.338 27.5767C151.736 27.6495 150.217 27.2242 148.737 26.686C147.889 26.3779 147.085 25.9452 146.277 25.5368C146.034 25.4144 145.814 25.2107 145.637 24.9997C145.056 24.3095 145.292 23.2447 146.217 23.2098C147.269 23.1708 147.746 22.5408 148.037 21.5709C148.93 18.5855 149.893 15.6211 150.825 12.6472C151.106 11.7502 151.004 11.4431 150.269 10.8775C150.13 10.7709 149.988 10.6675 149.853 10.5556C149.307 10.0987 149.197 9.71663 149.451 9.18792C149.673 8.72675 150.193 8.46504 150.792 8.61806C151.67 8.84389 152.524 9.1626 153.4 9.39582C155.494 9.95197 157.593 10.4828 159.692 11.0221C161.602 11.5128 163.24 12.4436 164.33 14.1331C165.553 16.0295 165.378 17.9829 164.282 19.8571C163.174 21.7514 161.372 22.4279 159.973 22.4785H159.972ZM159.451 15.9155C159.449 14.4423 158.711 13.5358 157.464 13.2477C157.021 13.1453 156.745 13.2931 156.612 13.7099C156.191 15.0248 155.768 16.3398 155.372 17.6621C155.271 17.9966 155.234 18.3839 155.612 18.6045C156.499 19.1237 157.571 19.2429 158.395 18.3955C159.113 17.6557 159.383 16.7271 159.452 15.9134L159.451 15.9155Z" fill="white"/>
<path d="M71.9084 19.0677C70.7355 18.9042 69.5521 18.7976 68.3949 18.558C67.5092 18.3755 67.101 17.8119 67.1968 17.089C67.2294 16.8463 67.3966 16.4865 67.586 16.421C68.9009 15.9599 69.2659 14.9489 69.2523 13.6973C69.2396 12.5385 69.2786 11.3735 69.1671 10.2242C69.0566 9.08134 68.2371 8.29513 67.5008 7.49626C66.6929 6.6193 65.8576 5.76555 65.0655 4.87487C64.4775 4.21319 63.6917 3.93142 62.9122 3.6201C62.4546 3.43753 62.0612 3.19481 62.0528 2.61756C62.0454 2.07302 62.3242 1.68044 62.9164 1.42506C63.029 1.37651 63.1426 1.32058 63.2604 1.29947C64.2902 1.11585 65.3169 0.846745 66.3542 0.783426C67.8185 0.69478 69.2922 0.731716 70.7597 0.776039C71.2899 0.791869 71.8358 0.93117 72.3376 1.11479C73.0298 1.36701 73.1928 2.01181 72.8341 2.66821C72.6448 3.01435 72.2229 3.26446 72.4344 3.78684C72.7258 4.50762 73.1329 5.14186 73.7872 5.55027C74.2027 5.80987 74.5646 5.47534 74.8507 5.1999C75.099 4.96035 75.3041 4.66381 75.4819 4.3641C75.8511 3.74252 75.85 3.47552 75.3704 2.94259C74.6813 2.17749 74.7602 1.05992 76.0036 0.754933C77.0966 0.486884 78.239 0.379242 79.3656 0.304315C80.1441 0.252605 80.9383 0.341251 81.7157 0.437284C82.2101 0.498492 82.6414 0.731716 82.8055 1.28786C83.0138 1.99176 82.7824 2.49409 82.0965 2.74103C81.965 2.78852 81.8303 2.82967 81.6946 2.85922C80.79 3.05446 80.061 3.50929 79.4761 4.24274C78.7008 5.21573 77.8887 6.15918 77.0787 7.10474C76.1993 8.13156 75.7049 9.28712 75.8069 10.6675C75.8963 11.8747 75.95 13.0852 76.0499 14.2914C76.1067 14.9784 76.4013 15.505 77.1019 15.7878C77.5552 15.9715 78.0423 16.1962 78.0454 16.8495C78.0476 17.528 77.7982 18.0652 77.0924 18.2499C75.9836 18.5401 74.8454 18.7279 73.7093 18.8905C73.1255 18.9738 72.5206 18.9052 71.9252 18.9052C71.92 18.9591 71.9147 19.0139 71.9095 19.0677H71.9084Z" fill="white"/>
<path d="M25.4472 38.2311C25.1001 38.9129 24.7529 39.5957 24.4047 40.2763C24.2932 40.4948 24.1891 40.7175 24.0587 40.9243C23.7704 41.3844 23.3707 41.395 23.0719 40.9064C22.6522 40.2193 22.2882 39.4975 21.899 38.7926C21.8043 38.6206 21.7012 38.4538 21.4919 38.3272C21.4919 38.8073 21.4404 39.296 21.515 39.7645C21.5487 39.9735 21.817 40.1645 22.0105 40.3249C22.4176 40.6626 22.3829 41.129 21.8811 41.2884C21.1669 41.5163 20.4358 41.5585 19.7341 41.2124C19.3196 41.0087 19.2376 40.6847 19.5868 40.3861C20.0118 40.022 20.1012 39.5893 20.0834 39.0743C20.0644 38.5298 20.0665 37.9831 20.0939 37.4397C20.1212 36.9015 20.0129 36.4561 19.57 36.0889C19.2576 35.8293 19.3544 35.3354 19.7636 35.1961C20.6872 34.8816 21.6497 34.8077 22.5975 35.0768C22.8163 35.1391 23.0225 35.3871 23.1508 35.6003C23.4675 36.1247 23.7336 36.6798 24.0229 37.2212C24.1018 37.369 24.1912 37.5104 24.3479 37.7784C24.7214 37.0882 25.0569 36.5184 25.342 35.9242C25.5976 35.3892 25.969 35.0019 26.5654 34.984C27.2429 34.9639 27.934 34.9766 28.5999 35.0874C29.2332 35.1929 29.3331 35.7786 28.8829 36.2524C28.7419 36.4012 28.6293 36.6376 28.6199 36.8381C28.5873 37.5747 28.5988 38.3145 28.6062 39.0522C28.6115 39.5292 28.6641 39.983 29.0385 40.3565C29.3668 40.6837 29.2121 41.0288 28.845 41.1459C27.731 41.5037 26.5865 41.6197 25.442 41.2863C25.0338 41.167 24.9086 40.7238 25.2084 40.4631C25.949 39.8183 25.584 39.0247 25.6334 38.286C25.5713 38.267 25.5093 38.247 25.4472 38.228V38.2311Z" fill="white"/>
<path d="M118.317 39.0543C118.444 39.4247 118.515 39.8278 118.71 40.1571C119.024 40.6837 118.944 41.1617 118.359 41.3306C117.263 41.6472 116.136 41.6187 115.036 41.3633C114.438 41.224 114.392 40.6858 114.818 40.2352C115.028 40.0136 115.222 39.6843 115.24 39.392C115.295 38.534 115.284 37.6687 115.242 36.8096C115.23 36.5585 115.073 36.2809 114.908 36.0762C114.482 35.5496 114.556 35.1043 115.206 34.9238C116.214 34.6431 117.247 34.6273 118.256 34.927C118.828 35.0969 118.912 35.4156 118.584 35.9221C118.328 36.3179 118.285 36.7189 118.541 37.2603C118.882 36.9553 119.213 36.7083 119.472 36.3991C119.564 36.2904 119.525 36.0065 119.455 35.8409C119.244 35.3343 119.322 35.0789 119.844 34.9227C120.701 34.6652 121.565 34.66 122.425 34.9227C122.768 35.0272 123.088 35.2362 123.013 35.6097C122.974 35.805 122.654 35.9707 122.431 36.0973C122.07 36.3031 121.681 36.4614 121.31 36.6503C120.982 36.817 120.937 37.0914 121.169 37.3415C122 38.2364 122.847 39.1165 123.702 39.9882C123.913 40.2035 124.289 40.3017 124.19 40.7101C124.094 41.1048 123.799 41.2947 123.419 41.3084C122.546 41.3401 121.67 41.3739 120.798 41.3401C120.584 41.3316 120.341 41.1016 120.179 40.9148C119.744 40.4104 119.35 39.8722 118.935 39.3519C118.82 39.2084 118.683 39.0828 118.557 38.9488C118.477 38.9846 118.397 39.0216 118.317 39.0574V39.0543Z" fill="white"/>
<path d="M84.3014 37.2392C84.638 36.9342 84.9914 36.6461 85.2965 36.3115C85.3638 36.2377 85.2912 35.9876 85.2229 35.8483C84.9757 35.3428 85.0451 35.0768 85.5574 34.927C86.4116 34.6758 87.2773 34.6526 88.1378 34.9132C88.4702 35.0146 88.8152 35.195 88.7395 35.5834C88.7006 35.7828 88.406 35.9633 88.1893 36.0889C87.8138 36.3073 87.4035 36.4646 87.0185 36.6703C86.7429 36.817 86.6314 37.0397 86.886 37.3046C87.7791 38.2343 88.6827 39.1535 89.5674 40.0906C89.721 40.2531 89.9229 40.5011 89.8924 40.6742C89.8567 40.8831 89.62 41.1881 89.4338 41.2177C88.7658 41.3232 88.0799 41.3095 87.4056 41.3812C86.6209 41.4646 86.0202 41.2567 85.5994 40.5317C85.3386 40.0811 84.9651 39.6959 84.6369 39.2854C84.5349 39.1577 84.416 39.0448 84.2477 38.8654C84.0783 39.3846 84.0773 39.7561 84.3929 40.1202C84.861 40.6594 84.6958 41.2863 83.99 41.3591C82.9749 41.4646 81.9408 41.4224 80.9173 41.3855C80.7142 41.3781 80.3944 41.1364 80.3555 40.9538C80.3103 40.7386 80.507 40.4695 80.608 40.2278C80.729 39.9355 80.953 39.6527 80.9699 39.3572C81.0182 38.5171 81.0067 37.6718 80.9667 36.8307C80.9551 36.5775 80.8268 36.2873 80.6606 36.091C80.2082 35.5538 80.3103 35.0114 81.0119 34.9037C81.8146 34.7813 82.6424 34.8151 83.4609 34.8024C83.646 34.7993 83.8385 34.8636 84.0163 34.9291C84.5948 35.1412 84.6306 35.3945 84.3455 35.9211C84.1604 36.2619 84.1425 36.6946 84.0499 37.0861C84.133 37.1378 84.2161 37.1896 84.2992 37.2413L84.3014 37.2392Z" fill="white"/>
<path d="M139.154 41.53C138.769 41.5132 138.38 41.5279 138 41.472C137.248 41.3623 137.069 40.9475 137.447 40.2848C137.533 40.1339 137.623 39.9745 137.657 39.8067C137.853 38.8263 137.436 38.4211 136.466 38.649C136.359 38.6744 136.226 38.7957 136.195 38.9002C136.05 39.3867 136.051 39.8616 136.374 40.3017C136.719 40.7713 136.57 41.2092 135.978 41.3549C135.542 41.4625 135.08 41.5037 134.63 41.5058C134.108 41.5089 133.575 41.4868 133.066 41.3834C132.465 41.2609 132.387 40.823 132.738 40.3259C132.947 40.0304 133.098 39.6421 133.132 39.2822C133.194 38.6206 133.2 37.943 133.129 37.2824C133.088 36.8909 132.91 36.4857 132.696 36.149C132.401 35.6868 132.452 35.2731 132.993 35.118C134.038 34.8172 135.105 34.8045 136.142 35.1697C136.635 35.3428 136.688 35.6309 136.392 36.0519C136.332 36.1374 136.232 36.2303 136.233 36.3179C136.239 36.6313 136.218 37.1864 136.319 37.2128C136.7 37.312 137.144 37.2993 137.522 37.1864C137.624 37.1568 137.581 36.625 137.596 36.3231C137.598 36.2767 137.558 36.2261 137.533 36.1807C137.102 35.3902 137.221 35.0399 138.11 34.9882C138.989 34.9375 139.889 35.0188 140.76 35.1655C141.342 35.2626 141.382 35.6551 141.063 36.1532C140.868 36.4582 140.723 36.835 140.687 37.1938C140.626 37.8027 140.666 38.4222 140.668 39.0374C140.67 39.5355 140.732 39.9946 141.099 40.4009C141.425 40.7607 141.246 41.2145 140.711 41.3528C140.208 41.4826 139.676 41.4973 139.157 41.5628C139.155 41.5522 139.153 41.5406 139.151 41.53H139.154Z" fill="white"/>
<path d="M70.5914 37.8649C71.1047 37.4755 71.5676 37.1378 72.0147 36.7811C72.3271 36.531 72.1798 36.2556 72.0189 35.9875C71.7422 35.5243 71.8337 35.2161 72.3523 35.0842C73.3212 34.8394 74.3005 34.851 75.2567 35.1517C75.7333 35.3016 75.7901 35.7501 75.525 36.1659C75.3125 36.4994 75.1494 36.9036 75.1011 37.293C75.0306 37.8639 75.0821 38.4506 75.08 39.0311C75.0779 39.5133 75.1274 39.9534 75.5292 40.3196C75.85 40.6109 75.7185 41.1111 75.3041 41.2504C74.2847 41.5955 73.2328 41.6113 72.1945 41.3739C71.6317 41.2451 71.535 40.8599 71.8863 40.3808C72.3145 39.7972 72.2282 39.1756 72.1072 38.457C71.4498 38.7926 70.9206 39.1809 70.5672 39.7508C70.4788 39.8943 70.5525 40.1845 70.6303 40.3755C70.8333 40.8715 70.7576 41.1375 70.2495 41.3084C69.308 41.624 68.3476 41.5881 67.404 41.3348C66.9064 41.2008 66.8202 40.7459 67.1652 40.3544C67.2346 40.2753 67.3177 40.2067 67.3787 40.1212C67.809 39.5144 67.6522 36.6967 67.1589 36.1216C66.8401 35.7501 66.8991 35.2984 67.3535 35.1507C68.4507 34.794 69.5668 34.8299 70.6503 35.2182C71.0574 35.3639 71.0963 35.6952 70.8323 36.0139C70.4578 36.4677 70.3547 37.0914 70.5903 37.8628L70.5914 37.8649Z" fill="white"/>
<path d="M92.4644 34.68C93.0662 34.7539 93.5059 34.7761 93.9298 34.8679C94.5136 34.9945 94.6809 35.3871 94.4305 35.9316C94.2033 36.4244 94.4621 37.3521 94.926 37.6053C95.0217 37.6581 95.2363 37.617 95.3247 37.5389C95.6834 37.2212 95.7581 36.4202 95.5004 35.9875C95.1543 35.4071 95.2952 34.9818 95.9537 34.8858C96.5481 34.7993 97.1666 34.8098 97.7652 34.871C97.9693 34.8921 98.2175 35.1634 98.3143 35.3786C98.4521 35.6889 98.2291 35.9105 97.9303 36.0118C97.2561 36.2398 96.9794 36.8065 96.7532 37.4048C96.3251 38.534 95.959 39.6896 95.4783 40.7955C95.1764 41.4921 94.7882 42.1801 94.3053 42.7605C93.5206 43.7072 92.2246 43.9425 91.1022 43.4824C90.3869 43.189 90.0734 42.7057 90.126 41.9754C90.1638 41.4498 90.5099 41.0625 91.0317 40.9623C91.5861 40.8557 91.9195 41.0224 92.1846 41.5417C92.233 41.6356 92.253 41.7495 92.3182 41.8255C92.4413 41.968 92.5896 42.0904 92.7264 42.2202C92.8547 42.0503 93.062 41.8931 93.0914 41.7073C93.1272 41.4836 93.0556 41.2166 92.9567 41.0024C92.313 39.6009 91.6639 38.2016 90.9791 36.8202C90.8592 36.5775 90.552 36.4339 90.3553 36.2218C90.1996 36.054 89.9535 35.8366 89.9745 35.6699C90.0008 35.4578 90.2238 35.1549 90.4195 35.1011C91.1369 34.9037 91.8785 34.794 92.4644 34.68Z" fill="white"/>
<path d="M97.9093 41.3834C97.8546 40.9581 98.0408 40.5613 98.47 40.2141C99.6187 39.2812 100.134 37.9631 100.54 36.5944C100.599 36.3949 100.622 36.1817 100.64 35.9738C100.698 35.29 101.037 34.8742 101.691 34.7032C102.29 34.546 103.013 34.7687 103.305 35.2932C103.959 36.4719 104.546 37.6877 105.201 38.8654C105.477 39.3603 105.824 39.8278 106.2 40.2531C106.63 40.7407 106.788 42.0092 106.414 42.5284C106.171 42.8661 105.635 42.9241 105.295 42.6402C105.202 42.5621 105.107 42.4693 105.057 42.3627C104.661 41.5005 103.904 41.3633 103.085 41.3781C102.229 41.3939 101.373 41.4593 100.517 41.4667C99.9648 41.4709 99.7365 41.8709 99.4704 42.2308C99.2158 42.5748 98.9875 42.9632 98.4679 42.7827C97.9272 42.5949 97.9177 42.1179 97.9093 41.6514C97.9093 41.5986 97.9093 41.5459 97.9093 41.3855V41.3834ZM102.572 39.7972C102.251 39.2717 102.009 38.8601 101.746 38.4633C101.713 38.4148 101.507 38.4032 101.48 38.4433C101.193 38.8517 100.928 39.2748 100.59 39.7972H102.572Z" fill="white"/>
<path d="M127.855 41.6102C126.7 41.5501 125.726 41.1786 124.992 40.3059C124.06 39.1989 124.121 37.4186 125.092 36.2229C126.263 34.7782 128.67 34.2801 130.293 35.1813C131.442 35.8187 132.07 36.8519 132.05 38.1499C132.026 39.7107 131.021 40.6299 129.669 41.1702C129.096 41.3992 128.461 41.4678 127.855 41.6092V41.6102ZM129.165 38.8274C128.96 38.1288 128.794 37.4133 128.523 36.741C128.441 36.5374 128.009 36.2904 127.841 36.3516C127.625 36.4308 127.371 36.8054 127.383 37.0408C127.416 37.7151 127.543 38.3915 127.698 39.0522C127.8 39.4827 128.031 39.9429 128.567 39.87C129.135 39.7919 129.052 39.2791 129.164 38.8274H129.165Z" fill="white"/>
<path d="M47.133 41.6472C46.4461 41.4256 45.6814 41.3295 45.0881 40.9581C43.022 39.6653 43.2051 36.6566 45.3763 35.3829C46.9353 34.4679 48.8751 34.5386 50.1142 35.5612C51.6553 36.8329 51.9699 39.4363 49.7135 40.7871C48.9255 41.2588 48.0977 41.5258 47.1814 41.5089C47.1656 41.5554 47.1499 41.6018 47.1341 41.6472H47.133ZM48.4564 38.9635C48.286 38.2734 48.1397 37.5758 47.9367 36.8951C47.82 36.5015 47.538 36.1997 47.0794 36.3168C46.6386 36.4297 46.566 36.8371 46.6207 37.2064C46.7196 37.8776 46.8532 38.5467 47.0352 39.1999C47.1457 39.5946 47.4065 39.964 47.8915 39.8912C48.4006 39.8152 48.3638 39.3688 48.4553 38.9635H48.4564Z" fill="white"/>
<path d="M113.272 37.8386C113.272 38.19 113.251 38.5425 113.278 38.8918C113.306 39.2432 113.38 39.5629 113.772 39.7508C113.898 39.8109 114.001 40.1824 113.938 40.3386C113.494 41.4372 111.749 41.9691 111.064 41.128C110.805 40.8103 110.543 40.861 110.253 41.0879C109.637 41.5691 108.922 41.5986 108.202 41.4709C107.308 41.3127 106.754 40.6731 106.673 39.7803C106.61 39.0859 107.213 38.1815 107.995 37.943C108.589 37.7626 109.215 37.6771 109.833 37.6011C110.317 37.542 110.492 37.3806 110.42 36.9057C110.41 36.8371 110.371 36.7727 110.36 36.7052C110.312 36.3706 110.269 35.9411 109.875 35.9464C109.612 35.9496 109.342 36.2493 109.094 36.4403C108.779 36.6819 108.511 36.9954 108.172 37.1906C107.839 37.3827 107.417 37.2982 107.254 36.9563C107.134 36.7062 107.163 36.3073 107.278 36.0414C107.384 35.7965 107.668 35.5939 107.919 35.4546C109.004 34.8552 110.154 34.5819 111.399 34.8436C112.543 35.0842 113.224 35.8789 113.25 37.046C113.256 37.3099 113.25 37.5726 113.25 37.8365H113.272V37.8386ZM110.54 39.1377C110.385 38.9646 110.257 38.6944 110.069 38.6406C109.748 38.5498 109.386 38.954 109.39 39.3361C109.394 39.697 109.509 40.022 109.944 40.002C110.426 39.9798 110.418 39.5851 110.541 39.1377H110.54Z" fill="white"/>
<path d="M145.677 34.7127C146 34.8024 146.563 34.8869 147.06 35.1138C147.777 35.4409 148.194 36.0319 148.194 36.8624C148.194 37.4249 148.185 37.9884 148.207 38.5498C148.227 39.0458 148.161 39.5946 148.827 39.793C148.9 39.8152 148.962 40.1064 148.923 40.2405C148.559 41.4762 146.657 41.9237 146.059 41.1586C145.774 40.7934 145.499 40.8768 145.164 41.1121C144.398 41.6493 143.556 41.6651 142.715 41.3264C142.104 41.0805 141.736 40.6098 141.658 39.9334C141.574 39.2157 141.865 38.6702 142.421 38.2491C143.098 37.7373 143.895 37.6391 144.706 37.5958C145.002 37.58 145.319 37.6412 145.356 37.1874C145.406 36.5922 145.173 35.9242 144.838 35.9369C144.6 35.9464 144.354 36.1511 144.143 36.3115C143.778 36.5891 143.463 36.9394 143.078 37.1832C142.765 37.3806 142.353 37.2961 142.22 36.9563C142.112 36.6777 142.17 36.2894 142.271 35.9907C142.339 35.7881 142.592 35.6235 142.797 35.4979C143.606 35.0008 144.502 34.7908 145.675 34.7138L145.677 34.7127ZM145.431 39.0469C145.331 38.9424 145.203 38.6955 145.017 38.6417C144.723 38.5562 144.296 39.0079 144.329 39.3487C144.361 39.6643 144.469 40.0041 144.87 40.003C145.42 40.003 145.32 39.5355 145.43 39.0458L145.431 39.0469Z" fill="white"/>
<path d="M65.8261 37.8766C65.8261 38.228 65.7724 38.591 65.8429 38.9276C65.9008 39.2041 66.0459 39.5619 66.2626 39.6811C66.5877 39.8605 66.594 40.0484 66.5067 40.3175C66.1848 41.3105 64.3786 41.9965 63.6401 41.11C63.3919 40.8124 63.1668 40.8304 62.8754 41.0393C62.0443 41.6335 61.1418 41.6704 60.235 41.2694C59.2125 40.8167 58.9337 39.5155 59.6491 38.649C60.3233 37.8312 61.2648 37.6665 62.2463 37.6064C62.524 37.5895 62.8743 37.7235 62.9785 37.2961C63.0931 36.8234 62.8869 36.072 62.5619 35.9728C62.3831 35.9179 62.1127 35.9865 61.9518 36.0973C61.7424 36.2408 61.613 36.4962 61.4247 36.6777C61.2385 36.8571 61.0397 37.0386 60.8136 37.1579C60.4254 37.3626 60.0414 37.2877 59.7869 36.9278C59.5239 36.5543 59.6185 36.1205 59.9541 35.8926C60.4959 35.5243 61.086 35.1929 61.7003 34.9755C62.5366 34.6811 63.4161 34.6589 64.2766 34.9533C65.3106 35.3069 65.8008 35.9907 65.8092 37.0861C65.8113 37.35 65.8092 37.6138 65.8092 37.8776C65.8145 37.8776 65.8198 37.8776 65.8261 37.8776V37.8766ZM63.0132 39.2506C63.009 38.9371 63.0521 38.6026 62.6082 38.5899C62.2726 38.5804 61.9191 38.9667 61.9381 39.3403C61.9539 39.6727 62.058 39.9893 62.4599 40.0104C63.0205 40.0399 62.9543 39.5872 63.0132 39.2506Z" fill="white"/>
<path d="M35.9688 37.5769C35.9961 38.0507 36.0119 38.5245 36.0561 38.9962C36.0866 39.3318 36.1434 39.6579 36.561 39.7687C36.6483 39.792 36.7546 40.0115 36.7356 40.1202C36.6125 40.8272 36.0866 41.1807 35.4775 41.3981C34.9347 41.5913 34.3519 41.6504 33.9154 41.1681C33.5935 40.8124 33.3252 40.8357 32.9728 41.0942C32.2985 41.5891 31.539 41.6124 30.7669 41.396C29.999 41.1807 29.5382 40.652 29.4572 39.8605C29.3825 39.125 29.7581 38.5868 30.3503 38.1879C31.0015 37.7499 31.7357 37.6359 32.5005 37.617C32.7603 37.6106 33.0822 37.695 33.1622 37.2793C33.2611 36.7643 33.077 36.0023 32.753 35.9696C32.4963 35.9432 32.1828 36.1184 31.9545 36.2862C31.7073 36.4677 31.5516 36.7695 31.3171 36.9743C30.8837 37.3521 30.3451 37.35 30.0411 37.007C29.7391 36.6672 29.8044 36.1131 30.2788 35.7649C31.599 34.7951 33.058 34.4542 34.6349 35.0177C35.5301 35.3375 36.0098 36.0087 35.9877 36.9933C35.9835 37.1864 35.9877 37.3806 35.9877 37.5737C35.9814 37.5737 35.9761 37.5737 35.9698 37.5747L35.9688 37.5769ZM33.2958 39.0469C33.158 38.9118 33.0096 38.6438 32.8119 38.5994C32.4952 38.5277 32.1018 39.01 32.1334 39.3783C32.1607 39.7033 32.2659 40.0125 32.6783 40.0146C33.2705 40.0167 33.1306 39.5165 33.2968 39.0469H33.2958Z" fill="white"/>
<path d="M57.6903 37.8428C57.8587 37.9504 58.0028 38.0496 58.1532 38.1372C59.3955 38.8664 59.0579 40.327 58.1606 40.8663C57.7219 41.1301 57.2107 41.3623 56.711 41.4192C55.2309 41.587 53.7245 41.739 52.4811 40.6109C52.2876 40.4357 52.0866 40.2563 51.9446 40.041C51.7174 39.6959 51.7469 39.3413 52.0551 39.0427C52.3486 38.7577 52.6389 38.897 52.9103 39.0828C53.1985 39.2801 53.4458 39.5724 53.7613 39.6875C54.2231 39.8574 54.726 39.9629 55.2172 39.9914C55.598 40.0136 55.8821 39.7434 55.8926 39.3287C55.9031 38.9445 55.6327 38.7757 55.2909 38.7219C55.05 38.6839 54.8028 38.6891 54.5629 38.6459C54.2063 38.5804 53.8676 38.4665 53.8518 38.0148C53.836 37.5557 54.1474 37.4207 54.525 37.3689C54.8017 37.331 55.1036 37.3647 55.3498 37.2603C55.5465 37.1769 55.82 36.9141 55.8 36.7653C55.7727 36.5574 55.5339 36.263 55.334 36.2134C54.7575 36.0709 54.2221 36.2482 53.8171 36.7052C53.5972 36.9532 53.4237 37.2413 53.207 37.4935C52.8398 37.9198 52.3644 37.8671 52.0982 37.3848C51.6396 36.5521 52.2665 34.9449 53.2848 34.9259C54.2557 34.909 55.2214 34.6705 56.1924 34.641C56.6752 34.6262 57.1896 34.8035 57.6483 34.9956C58.575 35.3839 59.2062 36.8286 57.9375 37.6391C57.8523 37.694 57.7787 37.7689 57.6893 37.8438L57.6903 37.8428Z" fill="white"/>
<path d="M42.0848 37.9958C42.0406 38.3251 42.0469 38.6733 41.9343 38.9772C41.8575 39.183 41.6124 39.3266 41.4431 39.4975C41.3147 39.3445 41.1275 39.2105 41.0707 39.0342C40.9644 38.7081 40.7951 38.4992 40.449 38.5097C40.328 38.5129 40.1576 38.5847 40.0997 38.6807C39.8315 39.126 40.1671 40.1592 40.6204 40.4557C40.7614 40.5476 40.9318 40.7491 40.9171 40.8821C40.9024 41.0203 40.7004 41.2103 40.5468 41.2514C39.5359 41.5258 38.506 41.5311 37.4846 41.3222C37.3258 41.2894 37.1354 41.0657 37.0985 40.899C37.0701 40.7702 37.2216 40.5243 37.3573 40.4505C37.716 40.2573 37.8507 39.964 37.8538 39.5925C37.8623 38.4855 37.8822 37.3774 37.8412 36.2714C37.8328 36.0424 37.5866 35.8198 37.4404 35.6003C37.3521 35.4683 37.1354 35.2942 37.1648 35.2351C37.2469 35.0715 37.4215 34.8541 37.5719 34.8447C38.1431 34.8077 38.7185 34.8573 39.2918 34.852C40.3038 34.8415 41.3168 34.8394 42.3267 34.7813C42.698 34.7602 42.9863 34.7803 43.1641 35.137C43.3871 35.5844 43.5996 36.0614 43.3145 36.5321C43.102 36.8835 42.7654 36.8139 42.5318 36.5099C42.1153 35.9675 41.5346 35.806 40.9076 35.8176C40.6615 35.8219 40.2617 35.9453 40.2049 36.11C40.0798 36.4698 40.0556 36.9046 40.1313 37.2814C40.1881 37.5663 40.8487 37.4956 41.0086 37.1885C41.1422 36.9331 41.2001 36.4962 41.5735 36.6756C41.8028 36.7864 41.9164 37.1811 42.0311 37.4692C42.0911 37.6212 42.0416 37.8164 42.0416 37.9916C42.0564 37.9926 42.07 37.9948 42.0848 37.9958Z" fill="white"/>
<path d="M94.5305 32.3098C95.1437 32.3098 95.756 32.3035 96.3693 32.3119C96.8763 32.3193 96.9931 32.4881 96.708 32.9113C96.5512 33.1435 96.2409 33.4073 95.9906 33.4179C94.6967 33.4706 93.4007 33.4464 92.1047 33.4485C91.7975 33.4485 91.7481 33.2575 91.8322 33.0242C91.9848 32.6032 92.2299 32.2919 92.7432 32.3056C93.3386 32.3214 93.934 32.3087 94.5294 32.3087V32.3108L94.5305 32.3098Z" fill="white"/>
</svg>
