<svg width="166" height="20" viewBox="0 0 166 20" fill="none" xmlns="http://www.w3.org/2000/svg">
<path d="M154.71 9.13104H157.434C158.134 9.17532 158.827 8.96558 159.386 8.54031C159.616 8.32863 159.8 8.07056 159.923 7.78302C160.045 7.48568 160.096 7.1644 160.075 6.84391C160.09 6.50333 160.036 6.16315 159.916 5.84426C159.796 5.5233 159.613 5.2297 159.378 4.9809C159.108 4.737 158.792 4.5491 158.448 4.42809C158.106 4.30834 157.743 4.25937 157.381 4.2842H154.71V9.13104ZM159.946 19.0746L157.487 11.9937L161.27 10.6987L163.54 16.091L165.257 16.5226V19.0746H159.946ZM148.461 19.0746V16.5377L150.345 16.1363V3.88279L148.461 3.48142V0.898954H157.381C158.661 0.869118 159.933 1.10371 161.118 1.5881C162.096 1.99309 162.937 2.67146 163.54 3.54202C164.128 4.44022 164.426 5.49768 164.395 6.57128C164.395 7.61223 164.098 8.63165 163.54 9.50969C162.95 10.4344 162.132 11.1909 161.164 11.7059C160.11 12.2725 158.926 12.5543 157.729 12.5237L154.703 12.4859V16.1136L156.587 16.515V19.0746H148.461ZM131.529 19.0746V16.5377L133.413 16.1363V3.88279L131.529 3.48142V0.914109H146.017V6.15476H142.719L142.62 4.2766H137.816V8.01021H143.604V11.3651H137.816V15.6896H142.885L142.984 13.7355H146.245V19.0746H131.529ZM122.193 19.332C120.536 19.3849 118.894 19.0066 117.427 18.234C116.16 17.539 115.125 16.4852 114.453 15.2046C113.744 13.7975 113.393 12.2366 113.432 10.6608V9.84291C113.395 8.19373 113.74 6.55836 114.438 5.06421C115.084 3.71817 116.11 2.59122 117.389 1.8229C118.788 1.00621 120.385 0.594577 122.004 0.633882C123.266 0.636269 124.521 0.827743 125.726 1.2019C126.938 1.5599 128.06 2.17171 129.017 2.99672V7.24532H125.9L125.242 4.97335C124.905 4.6309 124.494 4.37164 124.039 4.21601C123.478 4.01833 122.886 3.9209 122.292 3.92822C121.397 3.90077 120.517 4.16672 119.787 4.68556C119.093 5.21001 118.567 5.92597 118.274 6.74545C117.924 7.73182 117.754 8.77352 117.775 9.82019V10.6608C117.752 11.6414 117.933 12.616 118.304 13.5234C118.614 14.2825 119.14 14.9333 119.818 15.394C120.575 15.8555 121.451 16.0842 122.337 16.0528C122.861 16.0528 123.383 15.9995 123.896 15.894C124.308 15.8153 124.711 15.6935 125.098 15.5304V13.1829L123.056 12.9402V9.91105H129.494V17.4841C128.47 18.1334 127.349 18.614 126.173 18.908C124.87 19.2242 123.534 19.3794 122.193 19.3698V19.332ZM104.452 19.332C102.795 19.3849 101.152 19.0066 99.6853 18.234C98.4198 17.5367 97.3863 16.4836 96.712 15.2046C96.0022 13.7975 95.6514 12.2366 95.6907 10.6608V9.84291C95.6605 8.19353 96.0074 6.55903 96.7044 5.06421C97.3457 3.72251 98.3629 2.59635 99.6324 1.8229C101.038 1.00286 102.644 0.591116 104.27 0.633882C105.532 0.640048 106.786 0.831443 107.992 1.2019C109.202 1.55831 110.322 2.17036 111.276 2.99672V7.24532H108.166L107.501 4.97335C107.166 4.63209 106.757 4.37291 106.305 4.21601C105.741 4.01881 105.147 3.92142 104.55 3.92822C103.656 3.9057 102.778 4.17117 102.046 4.68556C101.349 5.20778 100.823 5.92446 100.533 6.74545C100.182 7.73182 100.013 8.77352 100.033 9.82019V10.6608C100.009 11.6408 100.187 12.6152 100.555 13.5234C100.88 14.2864 101.422 14.9373 102.114 15.394C102.869 15.8539 103.742 16.083 104.626 16.0528C105.149 16.0528 105.671 15.9995 106.184 15.894C106.598 15.8109 107.003 15.6892 107.395 15.5304V13.1829L105.352 12.9402V9.91105H111.775V17.4841C110.756 18.1366 109.636 18.6175 108.461 18.908C107.149 19.2274 105.802 19.383 104.452 19.3698V19.332ZM85.3712 16.015C86.2134 16.0341 87.0373 15.7671 87.7088 15.2579C88.3998 14.7304 88.9249 14.0151 89.2221 13.198C89.5853 12.2092 89.7596 11.1611 89.7365 10.108V9.79748C89.7528 8.76397 89.5758 7.73651 89.2146 6.76821C88.9118 5.95589 88.3875 5.24482 87.7012 4.71583C87.0086 4.22277 86.1796 3.95782 85.3294 3.95782C84.4793 3.95782 83.6502 4.22277 82.9576 4.71583C82.3083 5.2412 81.829 5.9475 81.5807 6.74545C81.2629 7.7412 81.1121 8.78271 81.1344 9.82775V10.1383C81.1141 11.1887 81.2672 12.2353 81.5883 13.2358C81.8385 14.045 82.3231 14.7618 82.9803 15.2957C83.6681 15.8129 84.5111 16.0798 85.3712 16.0528V16.015ZM85.3712 19.332C84.1837 19.34 83.0073 19.1057 81.9137 18.643C80.8786 18.1895 79.9469 17.5299 79.1747 16.7044C78.3926 15.8543 77.7859 14.8585 77.3893 13.7732C76.966 12.606 76.7531 11.3726 76.7615 10.1307V9.84291C76.7531 8.60595 76.966 7.37747 77.3893 6.21535C77.7891 5.13402 78.3954 4.14106 79.1747 3.2921C79.9409 2.4667 80.8678 1.80695 81.8986 1.35335C82.9842 0.888769 84.1527 0.649279 85.3334 0.649279C86.5137 0.649279 87.6825 0.888769 88.7682 1.35335C89.8133 1.80786 90.7573 2.46705 91.5446 3.2921C92.3399 4.14038 92.9664 5.13247 93.3905 6.21535C93.8389 7.37154 94.0621 8.60281 94.0489 9.84291V10.1307C94.0617 11.3757 93.8381 12.6116 93.3905 13.7732C92.974 14.8625 92.3466 15.8582 91.5446 16.7044C90.7645 17.5303 89.8248 18.1899 88.7833 18.643C87.7052 19.1049 86.5436 19.3392 85.3712 19.332ZM63.8314 15.7803H65.8213C66.6484 15.8077 67.4616 15.5631 68.1363 15.0837C68.7875 14.5773 69.2788 13.8934 69.5513 13.1145C69.8931 12.1683 70.057 11.1669 70.0355 10.161V9.86562C70.057 8.86462 69.8931 7.86827 69.5513 6.92722C69.286 6.14665 68.7931 5.46346 68.1363 4.96579C67.4635 4.48267 66.6488 4.23757 65.8213 4.26904H63.8314V15.7803ZM57.5522 19.0973V16.5377L59.451 16.0759V3.95854L57.5522 3.48142V0.914109H66.0485C67.5753 0.883715 69.0811 1.27688 70.3987 2.05009C71.6534 2.80011 72.6774 3.88247 73.3569 5.17783C74.0981 6.61329 74.4676 8.21219 74.431 9.82775V10.108C74.4676 11.7235 74.0981 13.3225 73.3569 14.7579C72.6846 16.0623 71.6594 17.1516 70.3987 17.9007C69.0831 18.6796 67.5765 19.0754 66.0485 19.0444L57.5522 19.0973ZM43.7525 19.0973V16.5377L45.6437 16.1363V4.30691H42.8367L42.7233 6.26078H39.4627V0.914109H56.2811V6.26078H52.9446L52.8388 4.30691H50.0544V16.1136L51.946 16.515V19.0746L43.7525 19.0973ZM29.6273 16.015C30.4715 16.0317 31.297 15.7652 31.9725 15.2579C32.6321 14.726 33.1302 14.0207 33.4098 13.2207C33.773 12.2319 33.9477 11.1838 33.9246 10.1307V9.82019C33.9393 8.78744 33.7651 7.76066 33.4098 6.79092C33.1075 5.9786 32.5832 5.26758 31.8969 4.73859C31.1983 4.25993 30.3717 4.00381 29.5251 4.00381C28.6785 4.00381 27.8518 4.25993 27.1533 4.73859C26.5339 5.26503 26.0791 5.95927 25.8444 6.73789C25.5266 7.73361 25.3758 8.77515 25.3981 9.82019V10.1307C25.3814 11.1809 25.5349 12.2269 25.852 13.2282C26.103 14.039 26.5903 14.7563 27.2515 15.2882C27.9366 15.7994 28.7728 16.0659 29.6273 16.0452V16.015ZM29.6273 19.332C28.4398 19.34 27.2635 19.1057 26.1698 18.643C25.1343 18.1943 24.2042 17.5339 23.4384 16.7044C22.6523 15.8578 22.0448 14.8609 21.653 13.7732C21.2197 12.6084 21.0045 11.3737 21.0176 10.1307V9.84291C21.0045 8.60488 21.2201 7.37512 21.653 6.21535C22.0468 5.13299 22.6511 4.13947 23.4308 3.2921C24.1911 2.48289 25.1073 1.83627 26.1241 1.39122C27.2113 0.926442 28.3809 0.686833 29.5629 0.686833C30.7448 0.686833 31.9144 0.926442 33.0013 1.39122C34.0444 1.84589 34.986 2.50509 35.7705 3.32993C36.5698 4.17646 37.1991 5.16887 37.624 6.25322C38.0723 7.40942 38.2955 8.64068 38.2824 9.88078V10.1686C38.2951 11.4135 38.0715 12.6498 37.624 13.8114C37.1999 14.8963 36.5733 15.8913 35.7781 16.7422C34.9924 17.5824 34.0384 18.2472 32.9786 18.6935C31.9188 19.1399 30.7766 19.3575 29.6273 19.332ZM0 19.0746V16.5377L1.88385 16.1363V3.88279L0 3.48142V0.914109H8.13291V3.48142L6.24921 3.88279V8.47217H12.8539V3.88279L10.9702 3.48142V0.914109H19.0957V3.48142L17.212 3.88279V16.1136L19.0957 16.515V19.0746H10.9702V16.5377L12.8539 16.1363V11.8271H6.24921V16.1136L8.13291 16.515V19.0746H0Z" fill="white"/>
</svg>
