<svg width="75" height="74" viewBox="0 0 75 74" fill="none" xmlns="http://www.w3.org/2000/svg">
<g clip-path="url(#clip0_16733_10700)">
<path d="M37.0195 74C57.4541 74 74.0195 57.4345 74.0195 37C74.0195 16.5655 57.4541 0 37.0195 0C16.585 0 0.0195312 16.5655 0.0195312 37C0.0195312 57.4345 16.585 74 37.0195 74Z" fill="white"/>
<path fill-rule="evenodd" clip-rule="evenodd" d="M33.0257 4.21064C33.1831 4.19368 33.3419 4.22377 33.4822 4.29708C33.6225 4.3704 33.7378 4.48366 33.8137 4.62254C33.8896 4.76142 33.9226 4.91967 33.9086 5.07731C33.8945 5.23495 33.8341 5.38489 33.7348 5.50816C33.6355 5.63143 33.502 5.72252 33.351 5.76988C33.2 5.81724 33.0383 5.81875 32.8864 5.77424C32.7345 5.72972 32.5993 5.64119 32.4977 5.51981C32.3961 5.39842 32.3329 5.24964 32.3159 5.09229C32.3046 4.98779 32.314 4.88208 32.3435 4.78121C32.3731 4.68034 32.4222 4.58628 32.4882 4.50441C32.5541 4.42254 32.6355 4.35446 32.7277 4.30405C32.82 4.25364 32.9212 4.2219 33.0257 4.21064ZM36.9261 3.9675C37.0834 3.95054 37.2423 3.98061 37.3825 4.05393C37.5228 4.12724 37.6382 4.2405 37.7141 4.37938C37.79 4.51826 37.8229 4.67653 37.8089 4.83417C37.7949 4.99181 37.7344 5.14175 37.6351 5.26502C37.5359 5.3883 37.4023 5.47937 37.2513 5.52673C37.1003 5.57409 36.9386 5.57561 36.7867 5.5311C36.6349 5.48659 36.4996 5.39804 36.398 5.27665C36.2965 5.15527 36.2332 5.0065 36.2162 4.84916C36.2049 4.74465 36.2143 4.63895 36.2439 4.53808C36.2734 4.43721 36.3226 4.34315 36.3885 4.26127C36.4544 4.1794 36.5358 4.11132 36.6281 4.06091C36.7203 4.01051 36.8215 3.97876 36.9261 3.9675ZM40.7402 4.19954C40.8976 4.18258 41.0564 4.21265 41.1967 4.28597C41.337 4.35928 41.4523 4.47254 41.5282 4.61142C41.6041 4.7503 41.6371 4.90857 41.6231 5.06621C41.609 5.22385 41.5486 5.37379 41.4493 5.49706C41.35 5.62034 41.2165 5.71141 41.0655 5.75877C40.9145 5.80613 40.7528 5.80765 40.6009 5.76314C40.449 5.71863 40.3138 5.63009 40.2122 5.50871C40.1106 5.38732 40.0474 5.23854 40.0304 5.0812C40.0191 4.97669 40.0285 4.87099 40.058 4.77012C40.0876 4.66925 40.1367 4.57519 40.2027 4.49331C40.2686 4.41144 40.35 4.34336 40.4422 4.29295C40.5345 4.24255 40.6357 4.2108 40.7402 4.19954ZM44.5015 4.87082C44.6589 4.85386 44.8177 4.88395 44.958 4.95726C45.0983 5.03058 45.2136 5.14384 45.2895 5.28272C45.3654 5.4216 45.3984 5.57987 45.3844 5.73751C45.3703 5.89515 45.3099 6.04507 45.2106 6.16834C45.1114 6.29162 44.9778 6.3827 44.8268 6.43006C44.6758 6.47743 44.5141 6.47895 44.3622 6.43443C44.2103 6.38992 44.0751 6.30137 43.9735 6.17999C43.872 6.0586 43.8087 5.90982 43.7917 5.75248C43.7804 5.64793 43.7898 5.5422 43.8194 5.4413C43.849 5.3404 43.8982 5.24631 43.9642 5.16443C44.0301 5.08255 44.1116 5.01448 44.2039 4.9641C44.2962 4.91373 44.3975 4.88202 44.5021 4.87082H44.5015ZM48.1577 5.98082C48.315 5.96386 48.4739 5.99395 48.6141 6.06727C48.7544 6.14058 48.8698 6.25384 48.9457 6.39272C49.0216 6.5316 49.0546 6.68985 49.0405 6.84749C49.0265 7.00513 48.966 7.15507 48.8668 7.27835C48.7675 7.40162 48.6339 7.49271 48.4829 7.54007C48.3319 7.58743 48.1702 7.58893 48.0184 7.54442C47.8665 7.49991 47.7312 7.41138 47.6297 7.28999C47.5281 7.16861 47.4648 7.01983 47.4478 6.86248C47.4364 6.75785 47.4457 6.652 47.4752 6.55098C47.5047 6.44996 47.5539 6.35575 47.6199 6.27376C47.6859 6.19176 47.7674 6.12358 47.8598 6.07314C47.9521 6.02269 48.0535 5.99097 48.1582 5.97977L48.1577 5.98082ZM51.6515 7.52795C51.8089 7.51099 51.9677 7.54108 52.108 7.6144C52.2483 7.68771 52.3636 7.80097 52.4395 7.93985C52.5154 8.07873 52.5484 8.23698 52.5344 8.39462C52.5203 8.55226 52.4599 8.7022 52.3606 8.82548C52.2613 8.94875 52.1278 9.03983 51.9768 9.0872C51.8257 9.13456 51.6641 9.13606 51.5122 9.09155C51.3603 9.04704 51.2251 8.95851 51.1235 8.83712C51.0219 8.71574 50.9587 8.56696 50.9417 8.40961C50.9302 8.3051 50.9395 8.19936 50.9689 8.09843C50.9983 7.9975 51.0473 7.90336 51.1132 7.82139C51.179 7.73941 51.2603 7.67122 51.3525 7.62069C51.4447 7.57016 51.546 7.53829 51.6505 7.5269L51.6515 7.52795ZM54.9445 9.4657C55.1019 9.44875 55.2607 9.47882 55.401 9.55213C55.5412 9.62545 55.6566 9.73871 55.7325 9.87759C55.8084 10.0165 55.8414 10.1747 55.8274 10.3324C55.8133 10.49 55.7529 10.64 55.6536 10.7632C55.5544 10.8865 55.4208 10.9776 55.2698 11.0249C55.1188 11.0723 54.9571 11.0738 54.8052 11.0293C54.6533 10.9848 54.5181 10.8962 54.4165 10.7749C54.315 10.6535 54.2517 10.5047 54.2347 10.3474C54.2232 10.2427 54.2325 10.1368 54.2621 10.0357C54.2917 9.93468 54.3409 9.84045 54.4069 9.75844C54.473 9.67644 54.5546 9.60829 54.647 9.55787C54.7394 9.50746 54.8409 9.47577 54.9456 9.46464L54.9445 9.4657ZM57.9754 11.7914C58.1327 11.7745 58.2916 11.8045 58.4318 11.8778C58.5721 11.9512 58.6875 12.0644 58.7634 12.2033C58.8392 12.3422 58.8722 12.5004 58.8582 12.6581C58.8442 12.8157 58.7837 12.9657 58.6844 13.0889C58.5852 13.2122 58.4516 13.3033 58.3006 13.3506C58.1496 13.398 57.9879 13.3995 57.836 13.355C57.6842 13.3105 57.5489 13.222 57.4473 13.1006C57.3458 12.9792 57.2825 12.8304 57.2655 12.6731C57.2542 12.5685 57.2636 12.4627 57.2933 12.3618C57.3229 12.2608 57.3721 12.1667 57.4382 12.0848C57.5042 12.003 57.5857 11.9349 57.6781 11.8845C57.7704 11.8342 57.8718 11.8025 57.9764 11.7914H57.9754ZM60.7239 14.448C60.8813 14.4311 61.0401 14.4611 61.1804 14.5344C61.3207 14.6078 61.436 14.721 61.5119 14.8599C61.5878 14.9988 61.6208 15.157 61.6068 15.3147C61.5927 15.4723 61.5323 15.6223 61.433 15.7455C61.3337 15.8688 61.2002 15.9599 61.0492 16.0072C60.8981 16.0546 60.7365 16.0561 60.5846 16.0116C60.4327 15.9671 60.2975 15.8786 60.1959 15.7572C60.0943 15.6358 60.0311 15.487 60.0141 15.3297C59.9911 15.1187 60.0528 14.9072 60.1858 14.7418C60.3187 14.5763 60.5119 14.4705 60.7229 14.4475L60.7239 14.448ZM63.1295 17.4165C63.2868 17.3995 63.4457 17.4296 63.5859 17.5029C63.7262 17.5762 63.8415 17.6895 63.9174 17.8284C63.9933 17.9672 64.0264 18.1255 64.0123 18.2831C63.9983 18.4408 63.9378 18.5907 63.8385 18.714C63.7393 18.8373 63.6057 18.9283 63.4547 18.9757C63.3037 19.0231 63.142 19.0246 62.9901 18.9801C62.8383 18.9356 62.703 18.847 62.6014 18.7256C62.4999 18.6042 62.4366 18.4555 62.4196 18.2981C62.3968 18.0872 62.4587 17.8758 62.5917 17.7104C62.7247 17.5451 62.918 17.4393 63.1289 17.4165H63.1295ZM65.1771 20.6408C65.3345 20.6238 65.4933 20.6539 65.6336 20.7272C65.7739 20.8005 65.8892 20.9138 65.9651 21.0526C66.041 21.1915 66.074 21.3498 66.06 21.5074C66.0459 21.6651 65.9855 21.815 65.8862 21.9383C65.787 22.0616 65.6534 22.1526 65.5024 22.2C65.3514 22.2473 65.1897 22.2489 65.0378 22.2044C64.8859 22.1598 64.7507 22.0713 64.6491 21.9499C64.5476 21.8285 64.4843 21.6798 64.4673 21.5224C64.445 21.3119 64.5071 21.1011 64.64 20.9362C64.7729 20.7714 64.9656 20.6659 65.1761 20.6429L65.1771 20.6408ZM66.8215 24.0897C66.9789 24.0727 67.1377 24.1028 67.278 24.1761C67.4182 24.2494 67.5336 24.3627 67.6095 24.5016C67.6854 24.6404 67.7184 24.7987 67.7044 24.9564C67.6903 25.114 67.6299 25.2639 67.5306 25.3872C67.4314 25.5105 67.2978 25.6016 67.1468 25.6489C66.9958 25.6963 66.8341 25.6978 66.6822 25.6533C66.5303 25.6088 66.3951 25.5202 66.2935 25.3988C66.192 25.2775 66.1287 25.1287 66.1117 24.9713C66.0894 24.7608 66.1515 24.55 66.2844 24.3852C66.4173 24.2203 66.61 24.1148 66.8205 24.0918L66.8215 24.0897ZM68.0462 27.7093C68.2036 27.6924 68.3624 27.7225 68.5027 27.7958C68.643 27.8691 68.7583 27.9824 68.8342 28.1212C68.9101 28.2601 68.9431 28.4184 68.9291 28.576C68.915 28.7337 68.8546 28.8836 68.7553 29.0069C68.656 29.1301 68.5225 29.2212 68.3715 29.2686C68.2204 29.3159 68.0588 29.3174 67.9069 29.2729C67.755 29.2284 67.6198 29.1399 67.5182 29.0185C67.4166 28.8971 67.3534 28.7483 67.3364 28.591C67.314 28.3803 67.3761 28.1693 67.5091 28.0043C67.6421 27.8393 67.835 27.7338 68.0457 27.7109L68.0462 27.7093ZM68.8391 31.4474C68.9964 31.4304 69.1553 31.4605 69.2956 31.5338C69.4358 31.6072 69.5512 31.7204 69.6271 31.8593C69.703 31.9982 69.736 32.1564 69.7219 32.3141C69.7079 32.4717 69.6474 32.6216 69.5482 32.7449C69.4489 32.8682 69.3153 32.9593 69.1643 33.0066C69.0133 33.054 68.8516 33.0555 68.6998 33.011C68.5479 32.9665 68.4126 32.8779 68.3111 32.7566C68.2095 32.6352 68.1462 32.4864 68.1292 32.329C68.1065 32.1185 68.1682 31.9075 68.3008 31.7424C68.4333 31.5772 68.626 31.4713 68.8364 31.4479L68.8391 31.4474ZM69.1694 35.2531C69.3267 35.2363 69.4853 35.2665 69.6254 35.3398C69.7655 35.4131 69.8808 35.5263 69.9566 35.6651C70.0324 35.8038 70.0655 35.9619 70.0515 36.1194C70.0376 36.2769 69.9773 36.4268 69.8783 36.55C69.7792 36.6733 69.6459 36.7645 69.4951 36.812C69.3443 36.8596 69.1828 36.8614 69.031 36.8173C68.8791 36.7731 68.7438 36.685 68.642 36.564C68.5402 36.443 68.4765 36.2946 68.459 36.1374C68.4474 36.0329 68.4565 35.9271 68.4858 35.8261C68.5151 35.7252 68.564 35.6309 68.6298 35.5489C68.6955 35.4668 68.7768 35.3985 68.8689 35.3478C68.9611 35.2971 69.0623 35.2652 69.1668 35.2536L69.1694 35.2531ZM69.0637 39.072C69.2208 39.0559 69.3792 39.0867 69.5189 39.1604C69.6585 39.2341 69.7733 39.3475 69.8486 39.4862C69.924 39.625 69.9566 39.783 69.9424 39.9403C69.9281 40.0976 69.8677 40.2471 69.7686 40.3701C69.6695 40.4931 69.5363 40.584 69.3856 40.6315C69.235 40.6789 69.0737 40.6807 68.922 40.6366C68.7704 40.5925 68.6352 40.5046 68.5334 40.3838C68.4316 40.263 68.3679 40.1149 68.3502 39.9579C68.3387 39.8533 68.348 39.7475 68.3775 39.6465C68.407 39.5455 68.4561 39.4514 68.522 39.3694C68.588 39.2874 68.6694 39.2192 68.7618 39.1687C68.8541 39.1182 68.9554 39.0865 69.06 39.0752L69.0637 39.072ZM68.5124 42.8534C68.6698 42.8365 68.8286 42.8666 68.9689 42.9399C69.1091 43.0132 69.2245 43.1264 69.3004 43.2653C69.3763 43.4042 69.4093 43.5625 69.3953 43.7201C69.3812 43.8778 69.3208 44.0277 69.2215 44.151C69.1223 44.2742 68.9887 44.3653 68.8377 44.4127C68.6867 44.46 68.525 44.4616 68.3731 44.417C68.2212 44.3725 68.086 44.284 67.9844 44.1626C67.8829 44.0412 67.8196 43.8924 67.8026 43.7351C67.7806 43.5251 67.8425 43.315 67.9748 43.1504C68.107 42.9859 68.2989 42.8803 68.5087 42.8566L68.5124 42.8534ZM67.5034 46.5386C67.6607 46.5217 67.8196 46.5518 67.9598 46.6251C68.1001 46.6984 68.2155 46.8116 68.2914 46.9505C68.3673 47.0894 68.4003 47.2477 68.3862 47.4053C68.3722 47.563 68.3117 47.7129 68.2125 47.8362C68.1132 47.9594 67.9796 48.0505 67.8286 48.0979C67.6776 48.1452 67.5159 48.1468 67.3641 48.1022C67.2122 48.0577 67.0769 47.9692 66.9754 47.8478C66.8738 47.7264 66.8105 47.5777 66.7935 47.4203C66.7715 47.2103 66.8334 47.0002 66.9657 46.8356C67.098 46.6711 67.2899 46.5655 67.4997 46.5418L67.5034 46.5386ZM66.0762 50.0827C66.2336 50.0658 66.3925 50.0958 66.5327 50.1691C66.673 50.2425 66.7883 50.3557 66.8642 50.4946C66.9401 50.6335 66.9731 50.7917 66.9591 50.9494C66.9451 51.107 66.8846 51.257 66.7853 51.3802C66.6861 51.5035 66.5525 51.5946 66.4015 51.6419C66.2505 51.6893 66.0888 51.6908 65.9369 51.6463C65.785 51.6018 65.6498 51.5133 65.5482 51.3919C65.4467 51.2705 65.3834 51.1217 65.3664 50.9644C65.3444 50.7546 65.4061 50.5446 65.5382 50.3801C65.6702 50.2155 65.8619 50.1098 66.0715 50.0859L66.0762 50.0827ZM64.2262 53.4264C64.3836 53.4095 64.5425 53.4396 64.6827 53.5129C64.823 53.5862 64.9383 53.6995 65.0142 53.8383C65.0901 53.9772 65.1231 54.1355 65.1091 54.2931C65.0951 54.4508 65.0346 54.6007 64.9353 54.724C64.8361 54.8472 64.7025 54.9383 64.5515 54.9857C64.4005 55.0331 64.2388 55.0346 64.0869 54.9901C63.9351 54.9456 63.7998 54.857 63.6982 54.7356C63.5967 54.6142 63.5334 54.4655 63.5164 54.3081C63.4944 54.0982 63.5562 53.8882 63.6884 53.7236C63.8205 53.5591 64.0123 53.4534 64.222 53.4296L64.2262 53.4264ZM62.0015 56.5329C62.1588 56.5159 62.3177 56.546 62.458 56.6193C62.5982 56.6926 62.7136 56.8059 62.7895 56.9448C62.8654 57.0836 62.8984 57.2419 62.8843 57.3995C62.8703 57.5572 62.8098 57.7071 62.7106 57.8304C62.6113 57.9537 62.4777 58.0447 62.3267 58.0921C62.1757 58.1395 62.014 58.141 61.8622 58.0965C61.7103 58.052 61.575 57.9634 61.4735 57.842C61.3719 57.7206 61.3086 57.5719 61.2916 57.4145C61.2696 57.2046 61.3315 56.9944 61.4638 56.8299C61.5961 56.6653 61.788 56.5597 61.9978 56.536L62.0015 56.5329ZM59.4205 59.3565C59.5778 59.3395 59.7367 59.3696 59.8769 59.4429C60.0172 59.5162 60.1326 59.6295 60.2085 59.7684C60.2844 59.9073 60.3174 60.0655 60.3033 60.2232C60.2893 60.3808 60.2288 60.5308 60.1295 60.654C60.0303 60.7773 59.8967 60.8684 59.7457 60.9157C59.5947 60.9631 59.433 60.9646 59.2812 60.9201C59.1293 60.8756 58.994 60.787 58.8924 60.6657C58.7909 60.5443 58.7276 60.3955 58.7106 60.2382C58.6993 60.1337 58.7087 60.028 58.7383 59.9271C58.7678 59.8262 58.817 59.7322 58.8829 59.6503C58.9488 59.5684 59.0302 59.5003 59.1225 59.4499C59.2147 59.3995 59.316 59.3678 59.4205 59.3565ZM56.5303 61.8556C56.6876 61.8386 56.8464 61.8687 56.9867 61.942C57.127 62.0153 57.2423 62.1286 57.3182 62.2675C57.3941 62.4063 57.4271 62.5646 57.4131 62.7223C57.3991 62.8799 57.3386 63.0298 57.2393 63.1531C57.1401 63.2764 57.0065 63.3675 56.8555 63.4148C56.7045 63.4622 56.5428 63.4637 56.3909 63.4192C56.2391 63.3747 56.1038 63.2861 56.0022 63.1647C55.9007 63.0434 55.8374 62.8946 55.8204 62.7372C55.7974 62.5264 55.8591 62.3149 55.9919 62.1495C56.1247 61.9841 56.3178 61.8782 56.5287 61.8551L56.5303 61.8556ZM53.3657 63.9968C53.523 63.9799 53.6819 64.0099 53.8221 64.0833C53.9624 64.1566 54.0778 64.2698 54.1537 64.4087C54.2296 64.5476 54.2626 64.7059 54.2485 64.8635C54.2345 65.0211 54.174 65.1711 54.0748 65.2943C53.9755 65.4176 53.8419 65.5087 53.6909 65.5561C53.5399 65.6034 53.3782 65.6049 53.2264 65.5604C53.0745 65.5159 52.9392 65.4274 52.8377 65.306C52.7361 65.1846 52.6728 65.0358 52.6558 64.8785C52.6328 64.6676 52.6945 64.4562 52.8273 64.2908C52.9602 64.1254 53.1532 64.0194 53.3641 63.9963L53.3657 63.9968ZM49.9686 65.7464C50.1259 65.7294 50.2848 65.7595 50.425 65.8328C50.5653 65.9061 50.6807 66.0194 50.7565 66.1583C50.8324 66.2972 50.8655 66.4554 50.8514 66.6131C50.8374 66.7707 50.7769 66.9206 50.6776 67.0439C50.5784 67.1672 50.4448 67.2583 50.2938 67.3056C50.1428 67.353 49.9811 67.3545 49.8292 67.31C49.6774 67.2655 49.5421 67.1769 49.4405 67.0556C49.339 66.9342 49.2757 66.7854 49.2587 66.6281C49.2357 66.4172 49.2974 66.2058 49.4302 66.0403C49.563 65.8749 49.7561 65.769 49.967 65.7459L49.9686 65.7464ZM46.3901 67.0863C46.5475 67.0694 46.7063 67.0994 46.8466 67.1728C46.9869 67.2461 47.1022 67.3593 47.1781 67.4982C47.254 67.6371 47.287 67.7954 47.273 67.953C47.2589 68.1106 47.1985 68.2606 47.0992 68.3839C47 68.5071 46.8664 68.5982 46.7154 68.6456C46.5644 68.6929 46.4027 68.6944 46.2508 68.6499C46.0989 68.6054 45.9637 68.5169 45.8621 68.3955C45.7605 68.2741 45.6973 68.1253 45.6803 67.968C45.6573 67.757 45.719 67.5455 45.852 67.3801C45.9849 67.2147 46.1781 67.1088 46.3891 67.0858L46.3901 67.0863ZM42.6748 67.9791C42.8322 67.9621 42.991 67.9922 43.1313 68.0655C43.2715 68.1388 43.3869 68.2521 43.4628 68.391C43.5387 68.5298 43.5717 68.6881 43.5577 68.8458C43.5436 69.0034 43.4831 69.1533 43.3839 69.2766C43.2846 69.3999 43.151 69.491 43 69.5383C42.849 69.5857 42.6874 69.5872 42.5355 69.5427C42.3836 69.4982 42.2483 69.4096 42.1468 69.2882C42.0452 69.1669 41.9819 69.0181 41.9649 68.8607C41.942 68.6498 42.0037 68.4383 42.1366 68.2729C42.2696 68.1074 42.4628 68.0016 42.6738 67.9786L42.6748 67.9791ZM38.8812 68.4352C39.0386 68.4183 39.1974 68.4484 39.3377 68.5217C39.478 68.595 39.5933 68.7082 39.6692 68.8471C39.7451 68.986 39.7781 69.1443 39.7641 69.3019C39.75 69.4596 39.6896 69.6095 39.5903 69.7328C39.4911 69.856 39.3575 69.9471 39.2065 69.9945C39.0555 70.0418 38.8938 70.0434 38.7419 69.9988C38.59 69.9543 38.4548 69.8658 38.3532 69.7444C38.2517 69.623 38.1884 69.4743 38.1714 69.3169C38.1484 69.1059 38.2102 68.8945 38.3431 68.729C38.476 68.5636 38.6692 68.4577 38.8802 68.4347L38.8812 68.4352ZM35.0607 68.4421C35.2181 68.4252 35.3769 68.4552 35.5172 68.5285C35.6575 68.6019 35.7728 68.7151 35.8487 68.854C35.9246 68.9929 35.9576 69.1511 35.9436 69.3088C35.9295 69.4664 35.8691 69.6164 35.7698 69.7396C35.6705 69.8629 35.537 69.954 35.386 70.0013C35.2349 70.0487 35.0733 70.0502 34.9214 70.0057C34.7695 69.9612 34.6343 69.8727 34.5327 69.7513C34.4312 69.6299 34.3679 69.4811 34.3509 69.3238C34.3279 69.1129 34.3896 68.9015 34.5224 68.7361C34.6552 68.5706 34.8483 68.4647 35.0591 68.4416L35.0607 68.4421ZM31.2661 67.9944C31.4235 67.9774 31.5823 68.0075 31.7226 68.0809C31.8628 68.1542 31.9782 68.2674 32.0541 68.4063C32.13 68.5452 32.163 68.7034 32.149 68.8611C32.1349 69.0187 32.0744 69.1687 31.9752 69.2919C31.8759 69.4152 31.7424 69.5063 31.5913 69.5536C31.4403 69.601 31.2787 69.6025 31.1268 69.558C30.9749 69.5135 30.8397 69.425 30.7381 69.3036C30.6365 69.1822 30.5732 69.0334 30.5562 68.8761C30.5333 68.6652 30.595 68.4538 30.7278 68.2884C30.8606 68.1229 31.0536 68.017 31.2645 67.9939L31.2661 67.9944ZM27.5492 67.1101C27.7066 67.0931 27.8654 67.1232 28.0057 67.1965C28.1459 67.2699 28.2613 67.3831 28.3372 67.522C28.4131 67.6609 28.4461 67.8192 28.4321 67.9768C28.418 68.1344 28.3575 68.2844 28.2583 68.4076C28.159 68.5309 28.0254 68.622 27.8744 68.6693C27.7234 68.7167 27.5618 68.7182 27.4099 68.6737C27.258 68.6292 27.1227 68.5407 27.0212 68.4193C26.9196 68.2979 26.8563 68.1491 26.8393 67.9918C26.8164 67.7809 26.878 67.5695 27.0109 67.4041C27.1437 67.2386 27.3367 67.1327 27.5476 67.1096L27.5492 67.1101ZM23.9666 65.7818C24.1239 65.7648 24.2827 65.7949 24.423 65.8683C24.5633 65.9416 24.6786 66.0548 24.7545 66.1937C24.8304 66.3326 24.8634 66.4909 24.8494 66.6485C24.8354 66.8061 24.7749 66.9561 24.6756 67.0793C24.5764 67.2026 24.4428 67.2937 24.2918 67.341C24.1408 67.3884 23.9791 67.3899 23.8272 67.3454C23.6754 67.3009 23.5401 67.2124 23.4385 67.091C23.337 66.9696 23.2737 66.8208 23.2567 66.6635C23.2337 66.4526 23.2954 66.2412 23.4282 66.0758C23.561 65.9103 23.7541 65.8044 23.965 65.7813L23.9666 65.7818ZM20.5657 64.0375C20.7231 64.0206 20.8819 64.0506 21.0222 64.124C21.1624 64.1973 21.2778 64.3105 21.3537 64.4494C21.4296 64.5883 21.4626 64.7466 21.4486 64.9042C21.4345 65.0618 21.374 65.2118 21.2748 65.335C21.1755 65.4583 21.042 65.5494 20.8909 65.5968C20.7399 65.6441 20.5783 65.6456 20.4264 65.6011C20.2745 65.5566 20.1392 65.4681 20.0377 65.3467C19.9361 65.2253 19.8729 65.0765 19.8558 64.9192C19.8336 64.7087 19.8956 64.498 20.0284 64.3332C20.1611 64.1683 20.3538 64.0628 20.5641 64.0396L20.5657 64.0375ZM17.3943 61.9069C17.5516 61.8899 17.7105 61.92 17.8508 61.9933C17.991 62.0666 18.1064 62.1799 18.1823 62.3187C18.2582 62.4576 18.2912 62.6159 18.2771 62.7735C18.2631 62.9312 18.2026 63.0811 18.1034 63.2044C18.0041 63.3276 17.8705 63.4187 17.7195 63.4661C17.5685 63.5135 17.4068 63.515 17.255 63.4705C17.1031 63.4259 16.9678 63.3374 16.8663 63.216C16.7647 63.0946 16.7014 62.9459 16.6844 62.7885C16.6622 62.5781 16.7241 62.3675 16.8568 62.2027C16.9894 62.0378 17.1819 61.9322 17.3922 61.909L17.3943 61.9069ZM14.4982 59.4136C14.6556 59.3966 14.8144 59.4267 14.9547 59.5C15.095 59.5733 15.2103 59.6866 15.2862 59.8255C15.3621 59.9644 15.3951 60.1226 15.3811 60.2803C15.367 60.4379 15.3066 60.5878 15.2073 60.7111C15.1081 60.8344 14.9745 60.9255 14.8235 60.9728C14.6725 61.0202 14.5108 61.0217 14.3589 60.9772C14.207 60.9327 14.0718 60.8441 13.9702 60.7227C13.8687 60.6014 13.8054 60.4526 13.7884 60.2952C13.7663 60.0849 13.8284 59.8743 13.9611 59.7096C14.0938 59.5449 14.2864 59.4394 14.4967 59.4162L14.4982 59.4136ZM11.9082 56.6021C12.0656 56.5852 12.2245 56.6152 12.3647 56.6885C12.505 56.7619 12.6203 56.8751 12.6962 57.014C12.7721 57.1529 12.8051 57.3111 12.7911 57.4688C12.777 57.6264 12.7166 57.7764 12.6173 57.8996C12.5181 58.0229 12.3845 58.114 12.2335 58.1613C12.0825 58.2087 11.9208 58.2102 11.7689 58.1657C11.617 58.1212 11.4818 58.0327 11.3802 57.9113C11.2787 57.7899 11.2154 57.6411 11.1984 57.4838C11.1763 57.2731 11.2387 57.0622 11.3719 56.8974C11.5051 56.7326 11.6981 56.6274 11.9088 56.6047L11.9082 56.6021ZM9.67714 53.5005C9.83449 53.4835 9.99335 53.5136 10.1336 53.5869C10.2739 53.6602 10.3892 53.7735 10.4651 53.9123C10.541 54.0512 10.574 54.2095 10.56 54.3671C10.5459 54.5248 10.4855 54.6747 10.3862 54.798C10.287 54.9213 10.1534 55.0123 10.0024 55.0597C9.85137 55.107 9.68969 55.1086 9.53782 55.0641C9.38594 55.0195 9.25069 54.931 9.14913 54.8096C9.04757 54.6882 8.98428 54.5395 8.96727 54.3821C8.94506 54.1713 9.00738 53.9603 9.14057 53.7954C9.27375 53.6305 9.46692 53.5252 9.67767 53.5026L9.67714 53.5005ZM7.81657 50.1625C7.97393 50.1456 8.13278 50.1756 8.27304 50.249C8.4133 50.3223 8.52866 50.4355 8.60456 50.5744C8.68045 50.7133 8.71347 50.8716 8.69942 51.0292C8.68538 51.1868 8.6249 51.3368 8.52565 51.46C8.42639 51.5833 8.29281 51.6744 8.1418 51.7218C7.99079 51.7691 7.82913 51.7706 7.67725 51.7261C7.52537 51.6816 7.39011 51.5931 7.28855 51.4717C7.18699 51.3503 7.12372 51.2015 7.10671 51.0442C7.08464 50.8335 7.14704 50.6226 7.28021 50.4578C7.41338 50.2931 7.60645 50.1878 7.8171 50.1652L7.81657 50.1625ZM6.38044 46.6211C6.53779 46.6041 6.69665 46.6342 6.83691 46.7075C6.97716 46.7808 7.09254 46.8941 7.16844 47.033C7.24434 47.1719 7.27733 47.3301 7.26329 47.4878C7.24924 47.6454 7.18878 47.7953 7.08953 47.9186C6.99027 48.0419 6.85669 48.133 6.70568 48.1803C6.55467 48.2277 6.39299 48.2292 6.24112 48.1847C6.08924 48.1402 5.95399 48.0516 5.85243 47.9303C5.75088 47.8089 5.68758 47.6601 5.67057 47.5027C5.64866 47.2921 5.71113 47.0814 5.84429 46.9167C5.97744 46.7521 6.17042 46.6469 6.38097 46.6243L6.38044 46.6211ZM5.36348 42.938C5.52083 42.9211 5.67968 42.9511 5.81994 43.0244C5.9602 43.0978 6.07557 43.211 6.15146 43.3499C6.22736 43.4888 6.26037 43.647 6.24633 43.8047C6.23228 43.9623 6.17181 44.1123 6.07255 44.2355C5.9733 44.3588 5.83972 44.4499 5.6887 44.4972C5.53769 44.5446 5.37603 44.5461 5.22416 44.5016C5.07228 44.4571 4.93701 44.3685 4.83545 44.2472C4.7339 44.1258 4.67061 43.977 4.6536 43.8197C4.63168 43.609 4.69415 43.3983 4.82731 43.2337C4.96046 43.069 5.15346 42.9638 5.36401 42.9412L5.36348 42.938ZM4.79897 39.1593C4.95632 39.1423 5.11516 39.1724 5.25542 39.2457C5.39568 39.319 5.51106 39.4323 5.58695 39.5711C5.66285 39.71 5.69586 39.8683 5.68182 40.0259C5.66777 40.1836 5.60729 40.3335 5.50804 40.4568C5.40879 40.5801 5.27521 40.6711 5.12419 40.7185C4.97318 40.7659 4.81152 40.7674 4.65965 40.7229C4.50777 40.6783 4.3725 40.5898 4.27094 40.4684C4.16939 40.347 4.1061 40.1983 4.08909 40.0409C4.06702 39.8302 4.12942 39.6193 4.26259 39.4546C4.39576 39.2898 4.58883 39.1845 4.79948 39.1619L4.79897 39.1593ZM4.68268 35.3398C4.83992 35.3228 4.99867 35.3528 5.13889 35.426C5.27911 35.4991 5.3945 35.6122 5.47049 35.7509C5.54648 35.8896 5.57968 36.0477 5.56587 36.2053C5.55206 36.3629 5.49186 36.5128 5.3929 36.6362C5.29394 36.7595 5.16063 36.8508 5.00983 36.8985C4.85902 36.9461 4.69748 36.9481 4.54558 36.904C4.39369 36.8599 4.25826 36.7718 4.15642 36.6508C4.05457 36.5298 3.99086 36.3813 3.97333 36.2241C3.95067 36.0131 4.01271 35.8018 4.14583 35.6366C4.27895 35.4713 4.47223 35.3657 4.6832 35.343L4.68268 35.3398ZM5.00457 31.5341C5.16192 31.5171 5.32078 31.5472 5.46104 31.6205C5.60129 31.6938 5.71667 31.8071 5.79257 31.946C5.86847 32.0849 5.90147 32.2431 5.88742 32.4008C5.87337 32.5584 5.8129 32.7083 5.71364 32.8316C5.61439 32.9549 5.48082 33.046 5.32981 33.0933C5.1788 33.1407 5.01712 33.1422 4.86525 33.0977C4.71337 33.0532 4.5781 32.9646 4.47655 32.8432C4.37499 32.7219 4.31171 32.5731 4.2947 32.4157C4.27219 32.2048 4.33438 31.9935 4.46759 31.8284C4.60081 31.6632 4.79414 31.5578 5.0051 31.5351L5.00457 31.5341ZM5.78263 27.7934C5.93999 27.7764 6.09884 27.8065 6.2391 27.8798C6.37936 27.9531 6.49472 28.0664 6.57062 28.2053C6.64652 28.3442 6.67953 28.5024 6.66548 28.6601C6.65144 28.8177 6.59096 28.9676 6.49171 29.0909C6.39245 29.2142 6.25887 29.3053 6.10786 29.3526C5.95685 29.4 5.79519 29.4015 5.64331 29.357C5.49144 29.3125 5.35617 29.2239 5.25461 29.1025C5.15305 28.9812 5.08976 28.8324 5.07275 28.675C5.05024 28.4641 5.11244 28.2528 5.24566 28.0877C5.37887 27.9225 5.57221 27.8171 5.78317 27.7944L5.78263 27.7934ZM6.99834 24.1716C7.1557 24.1547 7.31455 24.1847 7.45481 24.258C7.59507 24.3314 7.71043 24.4446 7.78633 24.5835C7.86222 24.7224 7.89524 24.8806 7.88119 25.0383C7.86715 25.1959 7.80667 25.3459 7.70742 25.4691C7.60816 25.5924 7.47458 25.6835 7.32357 25.7308C7.17256 25.7782 7.0109 25.7797 6.85902 25.7352C6.70714 25.6907 6.57187 25.6022 6.47032 25.4808C6.36876 25.3594 6.30549 25.2106 6.28848 25.0533C6.27726 24.9487 6.28677 24.8429 6.31646 24.742C6.34616 24.6411 6.39547 24.547 6.46154 24.4652C6.52762 24.3834 6.60919 24.3154 6.70157 24.2651C6.79395 24.2148 6.89534 24.1832 6.99994 24.1721L6.99834 24.1716ZM8.63163 20.7174C8.78898 20.7004 8.94783 20.7305 9.08809 20.8038C9.22835 20.8771 9.34373 20.9904 9.41963 21.1293C9.49552 21.2682 9.52852 21.4264 9.51448 21.5841C9.50043 21.7417 9.43995 21.8916 9.3407 22.0149C9.24145 22.1382 9.10788 22.2293 8.95687 22.2766C8.80586 22.324 8.64418 22.3255 8.4923 22.281C8.34043 22.2365 8.20516 22.148 8.1036 22.0266C8.00205 21.9052 7.93877 21.7564 7.92176 21.5991C7.91055 21.4945 7.92007 21.3887 7.94976 21.2878C7.97946 21.1869 8.02875 21.0928 8.09483 21.011C8.1609 20.9292 8.24247 20.8612 8.33485 20.8109C8.42723 20.7606 8.52862 20.729 8.63322 20.7179L8.63163 20.7174ZM10.6719 17.4868C10.8293 17.4698 10.9881 17.4999 11.1284 17.5732C11.2686 17.6465 11.384 17.7598 11.4599 17.8987C11.5358 18.0375 11.5688 18.1958 11.5548 18.3534C11.5407 18.5111 11.4802 18.661 11.381 18.7843C11.2817 18.9076 11.1482 18.9986 10.9971 19.046C10.8461 19.0934 10.6845 19.0949 10.5326 19.0504C10.3807 19.0059 10.2455 18.9173 10.1439 18.7959C10.0423 18.6746 9.97905 18.5258 9.96204 18.3684C9.95083 18.2638 9.96035 18.1581 9.99004 18.0572C10.0197 17.9563 10.069 17.8622 10.1351 17.7804C10.2012 17.6985 10.2827 17.6305 10.3751 17.5802C10.4675 17.53 10.5689 17.4984 10.6735 17.4873L10.6719 17.4868ZM13.0679 14.5099C13.2253 14.4929 13.3841 14.523 13.5244 14.5963C13.6647 14.6696 13.78 14.7829 13.8559 14.9217C13.9318 15.0606 13.9648 15.2189 13.9508 15.3765C13.9367 15.5342 13.8763 15.6841 13.777 15.8074C13.6777 15.9307 13.5442 16.0217 13.3932 16.0691C13.2421 16.1164 13.0805 16.118 12.9286 16.0735C12.7767 16.0289 12.6415 15.9404 12.5399 15.819C12.4383 15.6976 12.3751 15.5489 12.3581 15.3915C12.3468 15.287 12.3563 15.1812 12.386 15.0804C12.4157 14.9795 12.4649 14.8855 12.5309 14.8036C12.597 14.7218 12.6785 14.6538 12.7708 14.6035C12.8631 14.5532 12.9644 14.5215 13.069 14.5104L13.0679 14.5099ZM15.8091 11.8474C15.9665 11.8305 16.1253 11.8606 16.2656 11.9339C16.4058 12.0072 16.5212 12.1205 16.5971 12.2593C16.673 12.3982 16.706 12.5565 16.692 12.7141C16.6779 12.8717 16.6174 13.0217 16.5182 13.145C16.4189 13.2682 16.2853 13.3593 16.1343 13.4067C15.9833 13.454 15.8217 13.4556 15.6698 13.4111C15.5179 13.3665 15.3826 13.278 15.2811 13.1566C15.1795 13.0352 15.1162 12.8864 15.0992 12.7291C15.0881 12.6246 15.0976 12.5189 15.1273 12.4181C15.157 12.3173 15.2063 12.2233 15.2723 12.1415C15.3383 12.0598 15.4198 11.9918 15.5121 11.9415C15.6044 11.8912 15.7057 11.8596 15.8102 11.8485L15.8091 11.8474ZM18.8346 9.51327C18.992 9.49631 19.1509 9.52639 19.2911 9.5997C19.4314 9.67302 19.5467 9.78627 19.6226 9.92516C19.6985 10.064 19.7315 10.2223 19.7175 10.3799C19.7034 10.5376 19.643 10.6875 19.5437 10.8108C19.4445 10.9341 19.3109 11.0251 19.1599 11.0725C19.0089 11.1199 18.8472 11.1214 18.6953 11.0769C18.5434 11.0324 18.4082 10.9438 18.3066 10.8224C18.2051 10.701 18.1418 10.5523 18.1248 10.3949C18.1133 10.2903 18.1227 10.1844 18.1522 10.0833C18.1818 9.98226 18.231 9.88803 18.297 9.80603C18.3631 9.72403 18.4447 9.65586 18.5371 9.60544C18.6295 9.55503 18.731 9.52334 18.8357 9.51221L18.8346 9.51327ZM22.1224 7.56549C22.2797 7.54853 22.4386 7.5786 22.5788 7.65192C22.7191 7.72523 22.8344 7.83849 22.9103 7.97737C22.9862 8.11625 23.0193 8.27452 23.0052 8.43216C22.9912 8.5898 22.9307 8.73974 22.8314 8.86301C22.7322 8.98629 22.5986 9.07735 22.4476 9.12472C22.2966 9.17208 22.1349 9.1736 21.983 9.12909C21.8312 9.08458 21.6959 8.99603 21.5943 8.87464C21.4928 8.75326 21.4295 8.60449 21.4125 8.44715C21.39 8.23618 21.4522 8.02489 21.5854 7.85976C21.7186 7.69463 21.9119 7.58916 22.1229 7.56654L22.1224 7.56549ZM25.6109 6.01042C25.7683 5.99346 25.9271 6.02355 26.0674 6.09687C26.2077 6.17018 26.323 6.28344 26.3989 6.42232C26.4748 6.5612 26.5078 6.71945 26.4938 6.87709C26.4797 7.03473 26.4193 7.18467 26.32 7.30795C26.2208 7.43122 26.0872 7.52231 25.9362 7.56967C25.7851 7.61703 25.6235 7.61853 25.4716 7.57402C25.3197 7.52951 25.1845 7.44098 25.0829 7.31959C24.9814 7.19821 24.9181 7.04943 24.9011 6.89208C24.8899 6.78746 24.8995 6.68168 24.9293 6.58077C24.9591 6.47987 25.0085 6.38583 25.0747 6.30403C25.1409 6.22224 25.2225 6.15429 25.315 6.10409C25.4075 6.0539 25.5089 6.02243 25.6136 6.01149L25.6109 6.01042ZM29.2634 4.88881C29.4207 4.87185 29.5796 4.90192 29.7198 4.97523C29.8601 5.04855 29.9755 5.16181 30.0513 5.30069C30.1272 5.43957 30.1603 5.59784 30.1462 5.75548C30.1322 5.91312 30.0717 6.06305 29.9724 6.18633C29.8732 6.3096 29.7396 6.40067 29.5886 6.44803C29.4376 6.49539 29.2759 6.49692 29.124 6.4524C28.9722 6.40789 28.8369 6.31934 28.7353 6.19796C28.6338 6.07657 28.5705 5.92781 28.5535 5.77046C28.5424 5.66588 28.5521 5.56014 28.5819 5.4593C28.6118 5.35846 28.6612 5.26447 28.7273 5.18274C28.7935 5.101 28.8751 5.03311 28.9676 4.98294C29.06 4.93278 29.1614 4.90133 29.266 4.89039L29.2634 4.88881Z" fill="black"/>
<path fill-rule="evenodd" clip-rule="evenodd" d="M36.9641 36.5108C37.6084 36.5108 38.5995 36.0467 38.3273 35.5012C38.1402 35.1265 37.463 35.6239 36.9641 35.6239C36.4651 35.6239 35.7875 35.1265 35.6009 35.5012C35.3282 36.0457 36.3192 36.5108 36.9641 36.5108ZM43.8461 59.4508L43.8503 59.4461L45.2838 59.4508C45.3466 59.4479 45.4057 59.4209 45.4491 59.3755C45.4924 59.33 45.5166 59.2697 45.5166 59.2069C45.5166 59.1441 45.4924 59.0837 45.4491 59.0383C45.4057 58.9928 45.3466 58.9659 45.2838 58.963H44.0924V58.1537H45.1168C45.1795 58.1508 45.2387 58.1238 45.2821 58.0784C45.3255 58.0329 45.3497 57.9726 45.3497 57.9098C45.3497 57.847 45.3255 57.7866 45.2821 57.7412C45.2387 57.6957 45.1795 57.6687 45.1168 57.6658H44.0924V56.8608H45.2838C45.3466 56.8579 45.4057 56.8309 45.4491 56.7855C45.4924 56.7401 45.5166 56.6797 45.5166 56.6169C45.5166 56.5541 45.4924 56.4937 45.4491 56.4483C45.4057 56.4028 45.3466 56.3759 45.2838 56.373H43.8466C43.8147 56.3725 43.7831 56.3785 43.7536 56.3904C43.7241 56.4024 43.6973 56.4202 43.6747 56.4427C43.6522 56.4652 43.6343 56.492 43.6223 56.5215C43.6102 56.551 43.6042 56.5827 43.6046 56.6145V59.2087C43.6045 59.2405 43.6107 59.272 43.6228 59.3014C43.635 59.3308 43.6529 59.3574 43.6754 59.3799C43.6979 59.4023 43.7245 59.4201 43.7539 59.4322C43.7833 59.4443 43.8148 59.4505 43.8466 59.4503L43.8461 59.4508ZM41.2392 59.4508L41.2434 59.4461L42.6769 59.4508C42.7397 59.4479 42.7988 59.4209 42.8422 59.3755C42.8855 59.33 42.9097 59.2697 42.9097 59.2069C42.9097 59.1441 42.8855 59.0837 42.8422 59.0383C42.7988 58.9928 42.7397 58.9659 42.6769 58.963H41.4855V58.1537H42.5099C42.5726 58.1508 42.6318 58.1238 42.6752 58.0784C42.7185 58.0329 42.7427 57.9726 42.7427 57.9098C42.7427 57.847 42.7185 57.7866 42.6752 57.7412C42.6318 57.6957 42.5726 57.6687 42.5099 57.6658H41.4855V56.8608H42.6769C42.7397 56.8579 42.7988 56.8309 42.8422 56.7855C42.8855 56.7401 42.9097 56.6797 42.9097 56.6169C42.9097 56.5541 42.8855 56.4937 42.8422 56.4483C42.7988 56.4028 42.7397 56.3759 42.6769 56.373H41.2392C41.2073 56.3725 41.1757 56.3785 41.1462 56.3904C41.1167 56.4024 41.0898 56.4202 41.0673 56.4427C41.0447 56.4652 41.0269 56.492 41.0148 56.5215C41.0028 56.551 40.9967 56.5827 40.9971 56.6145V59.2087C40.997 59.2405 41.0033 59.272 41.0154 59.3014C41.0275 59.3308 41.0454 59.3574 41.0679 59.3799C41.0904 59.4023 41.1171 59.4201 41.1465 59.4322C41.1759 59.4443 41.2074 59.451 41.2392 59.4508ZM38.5794 59.4508C38.6441 59.4513 38.7064 59.426 38.7526 59.3806C38.7987 59.3353 38.8251 59.2735 38.8258 59.2087V58.1516H39.8501C39.9128 58.1487 39.972 58.1217 40.0154 58.0762C40.0587 58.0308 40.0829 57.9704 40.0829 57.9076C40.0829 57.8448 40.0587 57.7845 40.0154 57.739C39.972 57.6936 39.9128 57.6667 39.8501 57.6637H38.8258V56.8608H40.0171C40.0798 56.8579 40.139 56.8309 40.1824 56.7855C40.2258 56.7401 40.25 56.6797 40.25 56.6169C40.25 56.5541 40.2258 56.4937 40.1824 56.4483C40.139 56.4028 40.0798 56.3759 40.0171 56.373H38.5794C38.5476 56.373 38.5162 56.3792 38.4869 56.3914C38.4575 56.4036 38.4309 56.4214 38.4084 56.4439C38.386 56.4664 38.3682 56.4931 38.3561 56.5225C38.344 56.5518 38.3378 56.5833 38.3378 56.6151V59.2093C38.3378 59.2732 38.3632 59.3346 38.4084 59.3799C38.4536 59.4251 38.5154 59.4507 38.5794 59.4508ZM35.9196 59.4508C35.9844 59.4513 36.0467 59.426 36.0928 59.3806C36.139 59.3353 36.1653 59.2735 36.166 59.2087V58.1516H37.1914C37.2541 58.1487 37.3133 58.1217 37.3567 58.0762C37.4001 58.0308 37.4242 57.9704 37.4242 57.9076C37.4242 57.8448 37.4001 57.7845 37.3567 57.739C37.3133 57.6936 37.2541 57.6667 37.1914 57.6637H36.167V56.8608H37.3584C37.4212 56.8579 37.4803 56.8309 37.5237 56.7855C37.567 56.7401 37.5912 56.6797 37.5912 56.6169C37.5912 56.5541 37.567 56.4937 37.5237 56.4483C37.4803 56.4028 37.4212 56.3759 37.3584 56.373H35.9207C35.8889 56.373 35.8575 56.3792 35.8281 56.3914C35.7988 56.4036 35.7721 56.4214 35.7497 56.4439C35.7272 56.4664 35.7095 56.4931 35.6974 56.5225C35.6853 56.5518 35.6791 56.5833 35.6792 56.6151V59.2093C35.6792 59.273 35.7044 59.3343 35.7494 59.3795C35.7943 59.4248 35.8559 59.4504 35.9196 59.4508ZM33.317 56.2847C33.0113 56.2993 32.7163 56.4014 32.4671 56.579C32.218 56.7565 32.0251 57.002 31.9115 57.2862C31.798 57.5703 31.7686 57.8811 31.8268 58.1815C31.885 58.4819 32.0283 58.7592 32.2397 58.9804C33.614 60.4356 35.7727 58.289 34.3677 56.7556C34.235 56.6084 34.073 56.4904 33.892 56.4094C33.7111 56.3284 33.5152 56.2856 33.317 56.2847ZM34.0115 58.6326C33.0685 59.6438 31.6668 58.0913 32.6045 57.0997C33.5538 56.0896 34.9492 57.6463 34.011 58.6305L34.0115 58.6326ZM30.1165 59.4503C30.6228 59.4503 31.4574 59.1189 31.1736 58.7557C30.9363 58.4497 30.7248 58.9492 30.1165 58.9492C29.9724 58.9524 29.8291 58.9267 29.6951 58.8738C29.5611 58.8209 29.439 58.7417 29.336 58.6409C29.233 58.5402 29.1511 58.4199 29.0952 58.287C29.0394 58.1542 29.0105 58.0116 29.0105 57.8675C29.0105 57.7234 29.0394 57.5807 29.0952 57.4479C29.1511 57.3151 29.233 57.1948 29.336 57.094C29.439 56.9932 29.5611 56.9141 29.6951 56.8611C29.8291 56.8082 29.9724 56.7826 30.1165 56.7858C30.7439 56.7858 30.9373 57.2937 31.1736 56.9792C31.4537 56.6092 30.6086 56.2831 30.1165 56.2847C29.9009 56.2722 29.685 56.3039 29.4821 56.3779C29.2792 56.4518 29.0936 56.5663 28.9365 56.7145C28.7795 56.8628 28.6544 57.0415 28.5689 57.2398C28.4834 57.4381 28.4392 57.6518 28.4392 57.8678C28.4392 58.0837 28.4834 58.2973 28.5689 58.4956C28.6544 58.6939 28.7795 58.8727 28.9365 59.0209C29.0936 59.1691 29.2792 59.2837 29.4821 59.3577C29.685 59.4316 29.9009 59.4628 30.1165 59.4503ZM37.8204 33.2649C38.6444 33.2469 38.9351 31.7848 38.1217 31.8017C37.2971 31.8176 37.0058 33.2802 37.8198 33.2627L37.8204 33.2649ZM36.1068 33.2649C35.2832 33.2469 34.992 31.7848 35.8055 31.8017C36.629 31.8176 36.9197 33.2802 36.1062 33.2627L36.1068 33.2649ZM35.5666 26.3136C35.299 26.3075 35.0444 26.197 34.8573 26.0056C34.6702 25.8142 34.5654 25.5572 34.5654 25.2895C34.5654 25.0219 34.6702 24.7648 34.8573 24.5734C35.0444 24.382 35.299 24.2715 35.5666 24.2654C35.8256 24.2832 36.0681 24.3986 36.2453 24.5883C36.4224 24.7781 36.521 25.028 36.5209 25.2876C36.5209 25.5472 36.4222 25.7971 36.245 25.9868C36.0677 26.1765 35.8251 26.2917 35.5661 26.3094L35.5666 26.3136ZM38.4832 26.3136C38.2156 26.3075 37.9611 26.197 37.774 26.0056C37.5869 25.8142 37.4821 25.5572 37.4821 25.2895C37.4821 25.0219 37.5869 24.7648 37.774 24.5734C37.9611 24.382 38.2156 24.2715 38.4832 24.2654C38.7422 24.2832 38.9847 24.3987 39.1618 24.5885C39.339 24.7783 39.4374 25.0283 39.4373 25.2879C39.4372 25.5475 39.3384 25.7974 39.1611 25.987C38.9838 26.1766 38.7412 26.2918 38.4822 26.3094L38.4832 26.3136ZM40.9992 24.3542C44.1828 24.0952 51.0553 23.5978 51.7387 21.2044C52.1193 19.873 52.6796 17.4162 52.3297 16.2131C51.8159 16.3342 51.2271 20.0611 50.1573 20.9402C50.0718 21.0244 49.9692 21.0893 49.8564 21.1304C49.7436 21.1715 49.6234 21.1879 49.5037 21.1784C49.3841 21.1688 49.2679 21.1337 49.163 21.0752C49.0582 21.0168 48.9671 20.9365 48.8961 20.8397C48.08 19.7826 48.8961 15.6418 48.2988 15.5741C47.9288 15.5324 47.5551 18.9041 47.2998 19.8508C46.6745 22.1707 45.1691 22.1871 44.8752 20.1965C44.7759 19.521 44.7087 16.9325 44.3683 18.1805C43.8979 19.9042 44.5459 21.8985 43.0083 22.7505C42.2221 23.0849 41.3734 23.2471 40.5193 23.2262C40.1414 23.2473 39.9151 22.787 39.6001 22.3652C39.5584 22.3086 39.5293 22.2436 39.515 22.1748C39.5006 22.106 39.5013 22.0349 39.5169 21.9663C39.5325 21.8977 39.5627 21.8333 39.6054 21.7775C39.6481 21.7216 39.7024 21.6756 39.7645 21.6426C40.3026 21.3094 40.6941 20.7843 40.8597 20.1735C41.0253 19.5626 40.9528 18.9117 40.6567 18.3523C40.0267 18.6784 38.8283 20.2144 38.8912 20.975C38.8983 21.0648 38.8807 21.1547 38.8403 21.2351C38.7998 21.3155 38.738 21.3833 38.6617 21.431C38.5854 21.4788 38.4975 21.5047 38.4075 21.5059C38.3175 21.5072 38.2289 21.4837 38.1513 21.4381C37.4037 21.2158 36.6069 21.2206 35.862 21.4518C35.7844 21.4905 35.6978 21.5079 35.6113 21.5023C35.5247 21.4967 35.4412 21.4683 35.3692 21.42C35.2972 21.3717 35.2391 21.3052 35.2011 21.2272C35.1631 21.1493 35.1464 21.0626 35.1527 20.9761C35.2161 20.216 34.0173 18.6795 33.3872 18.3533C33.0895 18.9138 33.0168 19.5667 33.1837 20.1789C33.3507 20.7912 33.7449 21.3167 34.2859 21.6485C34.9159 21.9963 34.2235 22.6585 33.9454 23.0301C33.8967 23.0953 33.8326 23.1475 33.7588 23.1819C33.685 23.2163 33.6038 23.2319 33.5226 23.2273C31.5092 23.1163 30.0869 22.9318 29.9505 20.6865C29.9029 19.9121 29.7533 17.7877 29.5023 17.8559C29.0857 17.9685 29.6291 21.788 28.0661 21.6321C26.9075 21.5163 26.5967 19.2535 26.4276 18.1964C26.2214 16.9225 26.0005 15.5461 25.7404 15.5773C25.1537 15.6476 25.9608 19.79 25.1474 20.8424C25.0764 20.9392 24.9853 21.0196 24.8805 21.0781C24.7756 21.1366 24.6594 21.1717 24.5397 21.1813C24.4201 21.1908 24.2998 21.1745 24.187 21.1333C24.0742 21.0922 23.9716 21.0272 23.8862 20.9428C22.8121 20.0601 22.1747 16.1629 21.6968 16.2131L21.6028 17.3913C21.7009 18.6846 21.9363 19.9637 22.3052 21.2071C22.561 22.102 23.5886 22.74 25.3075 23.2299C27.8465 23.8373 30.4353 24.2134 33.0421 24.3537C33.1654 24.363 33.2807 24.4184 33.3649 24.5089C33.4492 24.5994 33.4962 24.7184 33.4967 24.842C33.4967 26.1957 35.1257 26.6635 33.9877 27.4612C30.1059 30.1828 33.0643 37.5569 37.0207 37.5569C40.977 37.5569 43.9349 30.1822 40.053 27.4612C38.914 26.6625 40.3385 26.5293 40.5473 24.785C40.5611 24.6721 40.6137 24.5675 40.696 24.4889C40.7783 24.4104 40.8858 24.3628 40.9992 24.3542ZM49.0066 24.1692C46.5307 24.7718 44.0055 25.1498 41.4617 25.2987C41.3527 25.8383 41.1195 26.3451 40.7804 26.7788C45.2246 30.1447 41.8645 38.5385 37.0207 38.5385C32.2107 38.5385 28.8611 30.2557 33.1721 26.8475C33.4232 26.6487 32.7366 26.4775 32.5458 25.2967C30.0134 25.1476 27.4995 24.7706 25.0348 24.1702C22.9733 23.5819 21.7159 22.7357 21.3538 21.4698C21.0747 20.4925 19.6946 15.4557 21.5821 15.239C23.2656 15.0455 23.4766 19.0405 24.4301 20.1071C24.8694 18.7889 23.8217 14.8362 25.6305 14.6026C27.5191 14.3589 27.1364 19.2223 28.0851 20.5363C28.5609 19.1721 27.8737 17.283 29.2438 16.9114C30.8406 16.4785 30.8326 18.986 30.9352 20.6267C31.0229 22.0538 31.7317 22.1321 33.3138 22.233L33.3434 22.1934C31.3834 20.6484 32.0748 17.2349 33.3767 17.3432C34.3746 17.4262 35.7685 19.2915 36.0592 20.3762C36.6952 20.2625 37.3462 20.2625 37.9821 20.3762C38.304 19.1737 40.5076 16.0689 41.5478 17.9294C41.9026 18.633 42.0117 19.4351 41.8576 20.2079C41.7036 20.9806 41.2954 21.6796 40.6979 22.1934L40.7275 22.233C42.3132 22.1321 43.0199 22.0533 43.1061 20.6267C43.2076 18.9881 43.1997 16.4785 44.7975 16.9114C46.157 17.2814 45.5069 19.2567 45.9562 20.5369C46.9102 19.2154 46.5085 14.3859 48.4108 14.6031C50.208 14.8082 49.1788 18.8116 49.6112 20.1071C50.5626 19.0394 50.7741 15.0455 52.4592 15.239C54.3467 15.4562 52.9671 20.4919 52.688 21.4698C52.3265 22.7357 51.0696 23.5841 49.0071 24.1702L49.0066 24.1692ZM38.4816 24.6476C38.8585 24.3833 39.1767 25.1936 38.6333 25.1936C38.5684 25.1946 38.505 25.1741 38.4529 25.1352C38.4009 25.0963 38.3632 25.0413 38.3458 24.9787C38.3283 24.9161 38.3321 24.8495 38.3565 24.7893C38.3809 24.7291 38.4245 24.6787 38.4806 24.646L38.4816 24.6476ZM35.7965 24.6058C36.1511 24.5651 36.2146 25.1936 35.7965 25.1936C35.7183 25.1937 35.6434 25.1628 35.588 25.1076C35.5326 25.0525 35.5014 24.9776 35.5013 24.8994C35.5011 24.8213 35.5321 24.7462 35.5872 24.6909C35.6424 24.6355 35.7173 24.6044 35.7954 24.6042L35.7965 24.6058ZM34.5876 44.0282C33.9206 44.5266 34.8905 45.3211 36.2616 44.5679C36.2088 44.4043 36.1179 44.2556 35.9964 44.134C35.8748 44.0124 35.7262 43.9215 35.5626 43.8686C35.3991 43.8158 35.2252 43.8025 35.0555 43.83C34.8859 43.8574 34.7251 43.9248 34.5866 44.0266L34.5876 44.0282ZM15.4349 49.8361C15.2045 49.8361 14.9837 49.7446 14.8208 49.5817C14.6579 49.4189 14.5664 49.198 14.5664 48.9677C14.5664 48.7373 14.6579 48.5165 14.8208 48.3536C14.9837 48.1907 15.2045 48.0992 15.4349 48.0992C15.6585 48.1089 15.8698 48.2046 16.0247 48.3664C16.1795 48.5281 16.2658 48.7434 16.2657 48.9673C16.2655 49.1912 16.1789 49.4065 16.0239 49.5681C15.8689 49.7296 15.6575 49.8251 15.4338 49.8345L15.4349 49.8361ZM58.5906 38.8725C58.3603 38.8725 58.1394 38.781 57.9765 38.6181C57.8137 38.4553 57.7222 38.2343 57.7222 38.004C57.7222 37.7737 57.8137 37.5528 57.9765 37.3899C58.1394 37.2271 58.3603 37.1356 58.5906 37.1356C58.8143 37.1453 59.0256 37.241 59.1804 37.4028C59.3352 37.5645 59.4215 37.7798 59.4214 38.0037C59.4213 38.2277 59.3347 38.4428 59.1797 38.6044C59.0247 38.766 58.8133 38.8614 58.5896 38.8709L58.5906 38.8725ZM40.2058 45.6964C41.2683 47.6563 42.8323 44.8596 43.1325 43.3548C42.1362 43.8072 40.8914 43.8416 40.2782 42.897C40.0742 43.3339 39.9624 43.8081 39.9497 44.2901C39.9371 44.7721 40.0239 45.2515 40.2048 45.6984L40.2058 45.6964ZM43.1865 42.2135C42.9999 41.011 41.7979 40.916 40.9622 41.804C41.0241 43.1138 42.3973 42.7205 43.1854 42.212L43.1865 42.2135ZM41.8603 47.1399C40.0536 48.1193 38.6761 45.9744 39.0287 43.7512C38.5905 44.1148 38.0429 44.544 37.3262 45.0435C37.4356 47.8449 34.7097 51.5043 32.8862 49.3778C32.0404 51.6105 29.2501 51.7717 29.0043 47.606L28.9583 45.3861C28.9229 44.4151 28.822 43.5889 28.407 43.6048C27.0169 43.6576 27.3901 49.9069 24.7509 49.6923C22.385 49.4999 23.2847 41.7986 22.2513 40.1595C22.1937 40.0681 22.1118 40.0433 21.996 40.1167C19.8183 41.491 18.4736 55.8898 18.4715 55.9337C18.4623 56.0615 18.4032 56.1807 18.3071 56.2654C18.2109 56.3501 18.0854 56.3937 17.9574 56.3868C17.8294 56.3798 17.7093 56.3229 17.6229 56.2283C17.5364 56.1337 17.4906 56.0089 17.4952 55.8808C17.4952 55.8354 18.8664 40.9371 21.4754 39.2901C24.7631 37.2154 23.3349 48.5929 24.8276 48.716C26.3403 48.8387 25.9598 42.7168 28.3727 42.6285C31.1049 42.5286 29.044 48.6986 30.7697 49.8562C31.422 50.2939 32.2942 49.0781 32.1393 47.6742C31.8777 45.2988 33.5448 42.3647 35.8002 42.9203C36.0884 42.9821 36.3575 43.1122 36.5849 43.2998C36.8123 43.4874 36.9913 43.7269 37.1068 43.9981L39.7095 41.86C39.7444 41.8013 39.7803 41.7437 39.8152 41.6871C41.1937 39.5903 43.4533 39.9587 44.0226 41.5137C45.0151 40.4108 45.6749 39.0494 45.9255 37.587C46.2897 35.5932 48.3083 35.2528 49.1783 36.5182C49.4911 37.0221 49.6604 37.6018 49.6678 38.1949C49.6724 38.3229 49.6266 38.4477 49.5402 38.5423C49.4537 38.6369 49.3336 38.6939 49.2056 38.7008C49.0776 38.7077 48.952 38.6641 48.8559 38.5794C48.7597 38.4946 48.7007 38.3755 48.6915 38.2477C48.59 36.4426 47.5646 36.5726 47.1729 37.0706C46.2215 38.2863 47.6746 41.3113 48.3982 43.1011C49.3892 42.2358 50.4937 41.5099 51.6811 40.9434C51.032 36.8327 53.7584 35.0583 55.296 36.0177C55.5814 36.2075 55.8039 36.4779 55.9352 36.7945C56.0664 37.1112 56.1004 37.4597 56.0328 37.7958C55.8214 39.5279 54.38 40.5544 52.7975 41.4461C53.455 43.5467 55.4207 43.3489 56.6359 41.9487C56.7207 41.8506 56.8411 41.7902 56.9704 41.7808C57.0998 41.7714 57.2276 41.8137 57.3258 41.8985C57.4239 41.9834 57.4843 42.1037 57.4937 42.233C57.5031 42.3624 57.4608 42.4902 57.3759 42.5884C55.6697 44.5557 52.8794 44.5568 51.928 41.9218C50.7719 42.4694 49.7113 43.1992 48.7867 44.0832C49.2886 45.3139 49.6778 46.5877 49.9495 47.8888C50.5008 51.1406 46.8558 51.6872 45.7585 49.5184C44.8964 47.8164 46.1501 45.5542 47.6502 43.8627C47.094 42.6008 46.6023 41.3113 46.1771 39.9994C45.7299 41.0368 45.0492 41.957 44.1881 42.6882C44.1479 44.2396 43.1838 46.4205 41.8571 47.1399H41.8603ZM36.3256 45.6181C35.2986 46.041 34.1558 45.9189 33.6129 45.1033C33.1288 45.9865 32.8402 47.3894 33.3423 48.3154C34.4275 50.3176 36.1247 47.3302 36.3245 45.6165L36.3256 45.6181ZM48.284 45.5436C48.2117 45.3371 48.1353 45.1257 48.0546 44.9093C44.7177 49.0634 47.4801 50.3975 48.5462 49.6474C49.5336 48.9529 48.7312 46.8179 48.2819 45.5441L48.284 45.5436ZM52.6056 40.4344C53.8514 39.7044 54.9197 38.8741 55.0634 37.6858C55.2754 35.9294 52.215 36.5235 52.6045 40.4334L52.6056 40.4344Z" fill="black"/>
</g>
<defs>
<clipPath id="clip0_16733_10700">
<rect width="74" height="74" fill="white" transform="translate(0.0195312)"/>
</clipPath>
</defs>
</svg>
