<svg width="142" height="60" viewBox="0 0 142 60" fill="none" xmlns="http://www.w3.org/2000/svg">
<path d="M6.32674 13.671H136.555C138.035 13.671 139.383 14.279 140.356 15.2518C141.329 16.2272 141.937 17.5727 141.937 19.0557V53.9092C141.937 55.3895 141.329 56.7376 140.356 57.7131C139.378 58.6858 138.03 59.2938 136.555 59.2938H6.32674C4.84907 59.2938 3.50357 58.6858 2.52815 57.7131C1.55008 56.7323 0.939453 55.3842 0.939453 53.9065V19.053C0.939453 17.5754 1.54744 16.2299 2.52286 15.2518C3.49564 14.2764 4.84114 13.6684 6.3241 13.6684M6.32674 15.9232C5.46763 15.9232 4.68254 16.2775 4.11684 16.8432C3.54851 17.4062 3.19693 18.1913 3.19693 19.053V53.9065C3.19693 54.7683 3.54851 55.5534 4.1142 56.1164C4.68254 56.6848 5.46763 57.0363 6.32939 57.0363H136.557C137.419 57.0363 138.204 56.6848 138.767 56.1191C139.333 55.5481 139.687 54.763 139.687 53.9039V19.053C139.687 18.1939 139.333 17.4088 138.767 16.8432C138.199 16.2775 137.417 15.9232 136.557 15.9232H6.32674Z" fill="white"/>
<path d="M14.3971 24.0888H17.096L25.3224 43.2747L33.6888 24.0888H36.3851L25.5814 48.8708H25.0289L14.3971 24.0888ZM80.4799 48.8708V24.0888H81.0139L101.326 43.0447V24.0888H103.811V48.8708H103.248L83.0335 30.0814V48.8708H80.4799ZM63.9559 24.0888H66.4407V46.4547H77.7044V48.8708H63.9559V24.0888ZM106.496 48.8708H109.195L117.422 29.6849L125.788 48.8708H128.487L117.683 24.0888H117.131L106.499 48.8708H106.496Z" fill="white"/>
<path d="M48.6373 49.4947C41.4499 49.4947 35.6238 43.6686 35.6238 36.4811C35.6238 29.2937 41.4499 23.4676 48.6373 23.4676C55.8248 23.4676 61.6509 29.2937 61.6509 36.4811C61.6509 43.6686 55.8248 49.4947 48.6373 49.4947ZM45.9754 30.7502V41.0304L53.5779 35.889L45.9754 30.7502Z" fill="white"/>
<path d="M6.79198 4.17853H4.72219V9.52088H3.00925V4.17853H0.939453V2.89383H6.79198V4.17853ZM12.6128 9.52088H7.81763V2.89383H12.6128V4.17853H9.53321V5.31784H12.396V6.60255H9.53321V8.23354H12.6128V9.52088ZM20.054 9.52088H18.0794L16.6519 7.34535L15.1981 9.52088H13.3107L15.6607 6.18224L13.3582 2.89383H15.3276L16.7075 4.95834L18.1243 2.89383H20.017L17.7067 6.11351L20.054 9.52088ZM26.9401 9.52088H25.2272V6.60255H22.7212V9.52088H21.0083V2.89383H22.7212V5.31784H25.2272V2.89383H26.9401V9.52088ZM35.0845 6.20868C35.0845 7.26604 34.7832 8.10401 34.1752 8.72521C33.5698 9.34641 32.7319 9.65834 31.6639 9.65834C30.596 9.65834 29.7607 9.34641 29.1553 8.72521C28.55 8.10401 28.246 7.26604 28.246 6.20868C28.246 5.15131 28.5473 4.30277 29.1553 3.68421C29.7607 3.06565 30.596 2.75637 31.6639 2.75637C32.7319 2.75637 33.5619 3.06565 34.1699 3.68421C34.7779 4.30277 35.0819 5.14602 35.0819 6.20868H35.0845ZM32.8191 7.88725C32.983 7.6837 33.1072 7.44844 33.1892 7.17352C33.2685 6.89861 33.3081 6.57611 33.3081 6.20339C33.3081 5.80688 33.2632 5.46852 33.1707 5.18832C33.0808 4.91076 32.9592 4.68342 32.8112 4.5116C32.6605 4.33449 32.486 4.20496 32.2878 4.12302C32.0895 4.04372 31.886 4.00406 31.6718 4.00406C31.4577 4.00406 31.2515 4.04107 31.0586 4.12038C30.8656 4.19703 30.6911 4.32656 30.5299 4.50367C30.3819 4.67021 30.2603 4.89754 30.1677 5.19096C30.0752 5.48438 30.0276 5.82274 30.0276 6.20868C30.0276 6.59462 30.0726 6.9409 30.1625 7.21846C30.255 7.49602 30.3739 7.72336 30.522 7.89782C30.67 8.07229 30.8445 8.20181 31.0427 8.28376C31.241 8.36835 31.4524 8.408 31.6718 8.408C31.8913 8.408 32.1001 8.36571 32.2983 8.28112C32.4966 8.19653 32.6711 8.06436 32.8191 7.88725ZM42.5495 7.21318H39.1501V5.92847H42.5495V7.21318ZM52.1821 4.17853H50.1123V9.52088H48.3994V4.17853H46.3296V2.89383H52.1821V4.17853ZM59.6551 6.20868C59.6551 7.26604 59.3537 8.10401 58.7458 8.72521C58.1404 9.34641 57.3024 9.65834 56.2345 9.65834C55.1666 9.65834 54.3312 9.34641 53.7259 8.72521C53.1206 8.10401 52.8166 7.26604 52.8166 6.20868C52.8166 5.15131 53.1179 4.30277 53.7259 3.68421C54.3312 3.06565 55.1666 2.75637 56.2345 2.75637C57.3024 2.75637 58.1325 3.06565 58.7405 3.68421C59.3484 4.30277 59.6524 5.14602 59.6524 6.20868H59.6551ZM57.387 7.88725C57.5509 7.6837 57.6752 7.44844 57.7571 7.17352C57.8364 6.89861 57.8761 6.57611 57.8761 6.20339C57.8761 5.80688 57.8311 5.46852 57.7386 5.18832C57.6487 4.91076 57.5271 4.68342 57.3791 4.5116C57.2284 4.33449 57.054 4.20496 56.8557 4.12302C56.6574 4.04372 56.4539 4.00406 56.2398 4.00406C56.0257 4.00406 55.8195 4.04107 55.6265 4.12038C55.4335 4.19703 55.2591 4.32656 55.0978 4.50367C54.9498 4.67021 54.8282 4.89754 54.733 5.19096C54.6405 5.48438 54.5929 5.82274 54.5929 6.20868C54.5929 6.59462 54.6379 6.9409 54.7278 7.21846C54.8203 7.49602 54.9392 7.72336 55.0873 7.89782C55.2353 8.07229 55.4098 8.20181 55.608 8.28376C55.8063 8.36835 56.0151 8.408 56.2371 8.408C56.4592 8.408 56.6654 8.36571 56.8636 8.28112C57.0619 8.19653 57.2364 8.06436 57.3844 7.88725H57.387ZM66.4275 4.98477C66.4275 5.28084 66.3773 5.57161 66.2716 5.85446C66.1685 6.1373 66.0204 6.37521 65.8275 6.56818C65.5631 6.82988 65.2697 7.02549 64.9446 7.16031C64.6221 7.29512 64.2176 7.36121 63.7339 7.36121H62.6712V9.52088H60.9583V2.89383H63.7709C64.1938 2.89383 64.5454 2.93084 64.8388 3.00221C65.127 3.07622 65.3834 3.18196 65.6054 3.32735C65.8724 3.50182 66.076 3.72651 66.2187 3.99878C66.3588 4.27105 66.4302 4.59883 66.4302 4.98213L66.4275 4.98477ZM64.6511 5.02442C64.6511 4.83674 64.6009 4.67814 64.5005 4.54332C64.4 4.41115 64.2864 4.31599 64.1542 4.26312C63.9771 4.19175 63.8053 4.1521 63.6387 4.14417C63.4695 4.13624 63.2475 4.13359 62.9673 4.13359H62.6765V6.11087H63.1629C63.451 6.11087 63.6889 6.09237 63.8766 6.058C64.0643 6.02099 64.2203 5.95226 64.3472 5.84653C64.4555 5.75137 64.5322 5.6377 64.5824 5.50817C64.63 5.376 64.6564 5.21475 64.6564 5.02707L64.6511 5.02442ZM72.4175 4.17853H69.3538V9.52088H67.6409V2.89383H72.4175V4.17853ZM79.8931 6.20868C79.8931 7.26604 79.5918 8.10401 78.9838 8.72521C78.3784 9.34641 77.5405 9.65834 76.4725 9.65834C75.4046 9.65834 74.5693 9.34641 73.9639 8.72521C73.3586 8.10401 73.0546 7.26604 73.0546 6.20868C73.0546 5.15131 73.3559 4.30277 73.9639 3.68421C74.5693 3.06565 75.4046 2.75637 76.4725 2.75637C77.5405 2.75637 78.3705 3.06565 78.9785 3.68421C79.5865 4.30277 79.8905 5.14602 79.8905 6.20868H79.8931ZM77.6277 7.88725C77.7916 7.6837 77.9158 7.44844 77.9978 7.17352C78.0771 6.89861 78.1167 6.57611 78.1167 6.20339C78.1167 5.80688 78.0718 5.46852 77.9793 5.18832C77.8894 4.91076 77.7678 4.68342 77.6198 4.5116C77.4691 4.33449 77.2946 4.20496 77.0964 4.12302C76.8981 4.04107 76.6946 4.00406 76.4804 4.00406C76.2663 4.00406 76.0602 4.04107 75.8672 4.12038C75.6742 4.19703 75.4997 4.32656 75.3385 4.50367C75.1905 4.67021 75.0689 4.89754 74.9763 5.19096C74.8838 5.48438 74.8362 5.82274 74.8362 6.20868C74.8362 6.59462 74.8812 6.9409 74.9711 7.21846C75.0636 7.49602 75.1825 7.72336 75.3306 7.89782C75.4786 8.07229 75.6531 8.20181 75.8513 8.28376C76.0496 8.36835 76.2584 8.408 76.4804 8.408C76.7025 8.408 76.9087 8.36571 77.1069 8.28112C77.3052 8.19653 77.4797 8.06436 77.6277 7.88725ZM86.8691 7.48809C86.8691 7.80794 86.8056 8.09608 86.6761 8.3472C86.5466 8.59833 86.3695 8.8098 86.1448 8.97369C85.8831 9.16931 85.595 9.30941 85.283 9.394C84.9685 9.47859 84.572 9.51824 84.0935 9.51824H81.2016V2.89383H83.7763C84.3103 2.89383 84.7015 2.91233 84.95 2.9467C85.1984 2.98371 85.4416 3.06036 85.6875 3.18196C85.9386 3.30885 86.1263 3.48067 86.2505 3.69479C86.3721 3.9089 86.4356 4.15474 86.4356 4.4323C86.4356 4.75215 86.351 5.035 86.1844 5.28084C86.0153 5.52667 85.7774 5.71436 85.4681 5.85181V5.88618C85.899 5.97341 86.2426 6.15052 86.4964 6.42015C86.7475 6.69242 86.8744 7.04664 86.8744 7.48809H86.8691ZM84.6803 4.76537C84.6803 4.65699 84.6539 4.54597 84.5984 4.43494C84.5429 4.32656 84.4477 4.24462 84.3103 4.1891C84.186 4.14152 84.0327 4.11509 83.8477 4.1098C83.6626 4.10451 83.4062 4.10451 83.0731 4.10451H82.9145V5.50817H83.1815C83.4485 5.50817 83.6758 5.50288 83.8662 5.49495C84.0538 5.48438 84.2045 5.45795 84.3129 5.40508C84.4636 5.33899 84.564 5.24912 84.6116 5.14074C84.6592 5.03235 84.683 4.90547 84.683 4.76273L84.6803 4.76537ZM85.0901 7.4643C85.0901 7.25283 85.0478 7.08893 84.9685 6.97262C84.8892 6.85896 84.7491 6.77172 84.5561 6.71621C84.4239 6.6792 84.2415 6.65806 84.0089 6.65541C83.7763 6.65277 83.5331 6.65013 83.2793 6.65013H82.9092V8.31019H83.0308C83.5067 8.31019 83.8477 8.31019 84.0539 8.30491C84.26 8.30491 84.4477 8.26526 84.6222 8.1886C84.7993 8.11458 84.9183 8.01678 84.987 7.89253C85.0531 7.76829 85.0874 7.62555 85.0874 7.46694L85.0901 7.4643ZM92.0158 7.43787C92.0158 7.32949 92.0026 7.22639 91.9815 7.12594C91.9577 7.02814 91.9048 6.93826 91.8255 6.85631C91.7462 6.77701 91.6378 6.71093 91.4977 6.66599C91.3603 6.61841 91.1673 6.59462 90.9241 6.59462H89.8562V8.28112H90.9241C91.1091 8.28112 91.2783 8.25733 91.4263 8.20974C91.577 8.16216 91.6907 8.10136 91.7673 8.02735C91.8466 7.95598 91.9101 7.87139 91.9524 7.77358C91.9947 7.67313 92.0158 7.56211 92.0158 7.44051V7.43787ZM93.7922 7.39293C93.7922 7.71543 93.7288 8.01413 93.6072 8.28376C93.4856 8.55603 93.3164 8.77808 93.1023 8.9499C92.8326 9.16666 92.5498 9.31734 92.259 9.39664C91.9682 9.47859 91.614 9.51824 91.1964 9.51824H88.1406V2.89383H89.8535V5.36278H91.2281C91.688 5.36278 92.0634 5.3945 92.3595 5.46323C92.6555 5.52932 92.9146 5.65091 93.1393 5.83067C93.3666 6.00778 93.5331 6.23511 93.6389 6.50474C93.742 6.77701 93.7948 7.07307 93.7948 7.39293H93.7922ZM96.1343 9.52088H94.4213V2.89383H96.1343V9.52088ZM102.201 9.52088V5.10901L99.4597 9.52088H97.8261V2.89383H99.4941V6.88539L102.048 2.89383H103.872V9.52088H102.201ZM103.242 0.705078C103.24 1.25755 103.031 1.69372 102.616 2.00828C102.201 2.32285 101.617 2.48146 100.861 2.48146C100.105 2.48146 99.5179 2.32285 99.1055 2.00828C98.6905 1.69372 98.4816 1.25755 98.479 0.705078H99.9752C99.9805 1.03286 100.049 1.27077 100.181 1.41616C100.311 1.56155 100.541 1.63556 100.866 1.63556C101.191 1.63556 101.421 1.56155 101.551 1.41351C101.68 1.26548 101.749 1.03022 101.757 0.705078H103.253H103.242ZM113.663 9.52088H108.651V2.89383H110.364V8.25468H112.862V2.89383H114.575V8.25468H115.23V11.0435H113.663V9.52088ZM121.191 9.52088H116.396V2.89383H121.191V4.17853H118.112V5.31784H120.974V6.60255H118.112V8.23354H121.191V9.52088ZM128.556 9.52088H126.843V6.60255H124.337V9.52088H122.624V2.89383H124.337V5.31784H126.843V2.89383H128.556V9.52088ZM135.442 4.17853H133.372V9.52088H131.659V4.17853H129.589V2.89383H135.442V4.17853ZM141.939 4.98477C141.939 5.28084 141.887 5.57161 141.783 5.85446C141.68 6.1373 141.532 6.37521 141.339 6.56818C141.075 6.82988 140.782 7.02549 140.456 7.16031C140.134 7.29512 139.73 7.36121 139.243 7.36121H138.183V9.52088H136.47V2.89383H139.283C139.703 2.89383 140.06 2.93084 140.348 3.00221C140.636 3.07622 140.893 3.18196 141.115 3.32735C141.382 3.50182 141.585 3.72651 141.728 3.99878C141.868 4.27369 141.939 4.59883 141.939 4.98213V4.98477ZM140.16 5.02442C140.16 4.83674 140.11 4.67814 140.01 4.54332C139.909 4.41115 139.796 4.31599 139.663 4.26312C139.486 4.19175 139.315 4.1521 139.145 4.14417C138.976 4.13624 138.754 4.13359 138.474 4.13359H138.183V6.11087H138.67C138.958 6.11087 139.193 6.09237 139.381 6.058C139.568 6.02099 139.724 5.95226 139.851 5.84653C139.957 5.75137 140.036 5.6377 140.086 5.50817C140.134 5.376 140.158 5.21475 140.158 5.02707L140.16 5.02442Z" fill="white"/>
</svg>
