<svg width="272" height="60" viewBox="0 0 272 60" fill="none" xmlns="http://www.w3.org/2000/svg">
<path d="M54.9888 27.4487C53.1258 27.4487 51.6191 28.9554 51.6191 30.8184C51.6191 43.19 41.5533 53.2606 29.1768 53.2606C16.8004 53.2606 6.73941 43.1948 6.73941 30.8184C6.73941 18.4419 16.8052 8.37612 29.1816 8.37612C35.5841 8.37612 41.534 11.0671 45.7221 15.6499H38.6072C36.7442 15.6499 35.2375 17.1566 35.2375 19.0196C35.2375 20.8825 36.7442 22.3893 38.6072 22.3893H54.2571C56.12 22.3893 57.6268 20.8825 57.6268 19.0196V3.3697C57.6268 1.50674 56.12 0 54.2571 0C52.3941 0 50.8874 1.50674 50.8874 3.3697V11.3126C45.4284 5.22304 37.6107 1.63671 29.1816 1.63671C13.0889 1.63671 0 14.7304 0 30.8184C0 46.9063 13.0889 60 29.1816 60C45.2744 60 58.3633 46.9111 58.3633 30.8184C58.3633 28.9554 56.8565 27.4487 54.9936 27.4487H54.9888Z" fill="#2BB673"/>
<path d="M104.013 18.8174C102.949 19.5298 102.179 20.7526 101.702 22.4856H101.231V18.0472H93.9521V47.999H101.231V31.7234C101.231 29.6341 101.625 27.9926 102.415 26.8084C103.204 25.6242 104.427 25.0321 106.083 25.0321H111.739V17.7535H108.687C106.637 17.7535 105.077 18.1098 104.013 18.8174Z" fill="white"/>
<path d="M176.009 18.8174C174.945 19.5298 174.175 20.7526 173.699 22.4856H173.227V18.0472H165.948V47.999H173.227V31.7234C173.227 29.6341 173.622 27.9926 174.411 26.8084C175.201 25.6242 176.423 25.0321 178.079 25.0321H183.736V17.7535H180.684C178.633 17.7535 177.073 18.1098 176.009 18.8174Z" fill="white"/>
<path d="M270.231 22.7262C269.461 20.9499 268.358 19.5972 266.914 18.673C265.475 17.7487 263.766 17.2818 261.792 17.2818C259.939 17.2818 258.307 17.6476 256.911 18.3793C255.51 19.111 254.413 20.1653 253.628 21.5468H253.156V8.01508H245.878V48.0038H253.156V30.7173C253.156 28.5847 253.628 26.9287 254.576 25.7445C255.525 24.5603 256.887 23.9682 258.659 23.9682C260.43 23.9682 261.735 24.5507 262.683 25.7157C263.631 26.8806 264.103 28.5462 264.103 30.7173V48.0038H271.382V29.0035C271.382 26.5966 270.996 24.5074 270.226 22.7311L270.231 22.7262Z" fill="white"/>
<path d="M135.274 19.5876C133.045 18.0472 130.489 17.2769 127.611 17.2769C124.924 17.2769 122.508 17.9509 120.361 19.2891C118.209 20.6322 116.534 22.4952 115.33 24.8829C114.127 27.2705 113.525 29.9663 113.525 32.9605C113.525 35.9547 114.137 38.8286 115.359 41.2163C116.582 43.604 118.262 45.4573 120.39 46.7811C122.522 48.1049 124.929 48.7644 127.611 48.7644C130.056 48.7644 132.246 48.2927 134.182 47.3443C136.117 46.396 137.662 45.1444 138.827 43.5847C139.804 42.2802 140.464 40.8649 140.815 39.3533H133.508C133.175 40.0321 132.656 40.6627 131.933 41.2452C130.908 42.0732 129.565 42.4872 127.909 42.4872C125.661 42.4872 123.923 41.6592 122.7 40.0032C121.752 38.7227 121.179 37.0234 120.963 34.9101H141.287C141.682 31.5934 141.335 28.5992 140.252 25.913C139.164 23.2317 137.508 21.1184 135.279 19.578L135.274 19.5876ZM121.165 29.7112C121.29 29.0709 121.449 28.4596 121.661 27.906C122.195 26.5051 122.97 25.4316 124 24.6807C125.026 23.9297 126.248 23.5542 127.668 23.5542C129.088 23.5542 130.383 23.9201 131.428 24.647C132.473 25.3787 133.272 26.4137 133.825 27.7567C134.071 28.3536 134.254 29.0131 134.389 29.7112H121.165Z" fill="white"/>
<path d="M207.271 19.5876C205.042 18.0472 202.486 17.2769 199.607 17.2769C196.921 17.2769 194.504 17.9509 192.357 19.2891C190.205 20.6322 188.53 22.4952 187.327 24.8829C186.123 27.2705 185.521 29.9663 185.521 32.9605C185.521 35.9547 186.133 38.8286 187.356 41.2163C188.578 43.604 190.258 45.4573 192.386 46.7811C194.519 48.1049 196.926 48.7644 199.607 48.7644C202.052 48.7644 204.243 48.2927 206.178 47.3443C208.113 46.396 209.658 45.1444 210.823 43.5847C211.8 42.2802 212.46 40.8649 212.811 39.3533H205.504C205.172 40.0321 204.652 40.6627 203.93 41.2452C202.904 42.0732 201.561 42.4872 199.905 42.4872C197.657 42.4872 195.919 41.6592 194.697 40.0032C193.748 38.7227 193.176 37.0234 192.959 34.9101H213.283C213.678 31.5934 213.331 28.5992 212.248 25.913C211.165 23.2317 209.504 21.1184 207.275 19.578L207.271 19.5876ZM193.161 29.7112C193.286 29.0709 193.445 28.4596 193.657 27.906C194.191 26.5051 194.966 25.4316 195.996 24.6807C197.022 23.9297 198.245 23.5542 199.665 23.5542C201.085 23.5542 202.375 23.9201 203.424 24.647C204.469 25.3787 205.268 26.4137 205.822 27.7567C206.067 28.3536 206.25 29.0131 206.385 29.7112H193.161Z" fill="white"/>
<path d="M238.382 32.7872C236.702 31.3286 234.151 30.3995 230.719 30.0048C229.178 29.8074 227.956 29.5716 227.051 29.2923C226.141 29.018 225.491 28.6521 225.096 28.1948C224.701 27.7423 224.504 27.1598 224.504 26.4474C224.504 25.5424 224.851 24.8588 225.539 24.4063C226.227 23.9538 227.166 23.7275 228.35 23.7275C229.929 23.7275 231.152 24.0452 232.019 24.6759C232.64 25.1284 233.073 25.7012 233.333 26.3944H240.756C240.554 24.8877 240.014 23.4916 239.119 22.2208C238.055 20.7044 236.621 19.4961 234.825 18.6104C233.029 17.7246 230.988 17.2769 228.697 17.2769C226.406 17.2769 224.393 17.6524 222.66 18.4034C220.923 19.1544 219.56 20.2182 218.578 21.5998C217.591 22.9814 217.1 24.6373 217.1 26.5725C217.1 28.3488 217.476 29.8459 218.227 31.0687C218.978 32.2914 220.138 33.259 221.717 33.9714C223.296 34.6839 225.347 35.2134 227.874 35.5696C229.255 35.767 230.338 36.0125 231.128 36.311C231.917 36.6094 232.481 36.9897 232.813 37.4663C233.15 37.9381 233.318 38.5109 233.318 39.1848C233.318 40.292 232.933 41.0911 232.163 41.5821C231.393 42.078 230.319 42.3235 228.938 42.3235C227.238 42.3235 225.929 41.9673 225 41.2596C224.36 40.7686 223.907 40.138 223.633 39.3678H216.191C216.398 40.8986 216.903 42.3139 217.717 43.5992C218.723 45.1974 220.152 46.4586 222.006 47.3877C223.859 48.3119 226.112 48.7789 228.755 48.7789C231.085 48.7789 233.164 48.4034 234.998 47.6524C236.832 46.9015 238.272 45.7991 239.321 44.3357C240.366 42.8771 240.89 41.1008 240.89 39.0067C240.89 36.3254 240.053 34.2506 238.373 32.792L238.382 32.7872Z" fill="white"/>
<path d="M148.498 18.0472H143.227V24.4977H148.493V47.999H155.834V24.4977H162.463V18.0472H155.478C155.478 15.4862 156.402 13.397 160.128 13.397C161.077 13.397 161.929 13.4788 162.656 13.6377V8.16912C162.155 7.84178 160.6 7.63478 159.531 7.63478C151.632 7.63478 148.503 11.6303 148.503 18.0375L148.498 18.0472Z" fill="white"/>
</svg>
